<?xml version="1.0" encoding="UTF-8" standalone="no"?>
<!-- Created with Inkscape (http://www.inkscape.org/) -->

<svg
   xmlns:dc="http://purl.org/dc/elements/1.1/"
   xmlns:cc="http://creativecommons.org/ns#"
   xmlns:rdf="http://www.w3.org/1999/02/22-rdf-syntax-ns#"
   xmlns:svg="http://www.w3.org/2000/svg"
   xmlns="http://www.w3.org/2000/svg"
   xmlns:sodipodi="http://sodipodi.sourceforge.net/DTD/sodipodi-0.dtd"
   xmlns:inkscape="http://www.inkscape.org/namespaces/inkscape"
   width="266.33813mm"
   height="206.56465mm"
   viewBox="0 0 943.71776 731.92196"
   id="svg2"
   version="1.1"
   inkscape:version="0.91 r13725"
   sodipodi:docname="chopstickshand-1917.svg">
  <defs
     id="defs4" />
  <sodipodi:namedview
     id="base"
     pagecolor="#ffffff"
     bordercolor="#666666"
     borderopacity="1.0"
     inkscape:pageopacity="0.0"
     inkscape:pageshadow="2"
     inkscape:zoom="0.76375266"
     inkscape:cx="522.54513"
     inkscape:cy="279.29136"
     inkscape:document-units="px"
     inkscape:current-layer="layer1"
     showgrid="false"
     fit-margin-top="0"
     fit-margin-left="0"
     fit-margin-right="0"
     fit-margin-bottom="0"
     inkscape:window-width="1916"
     inkscape:window-height="1035"
     inkscape:window-x="4"
     inkscape:window-y="1"
     inkscape:window-maximized="1" />
  <metadata
     id="metadata7">
    <rdf:RDF>
      <cc:Work
         rdf:about="">
        <dc:format>image/svg+xml</dc:format>
        <dc:type
           rdf:resource="http://purl.org/dc/dcmitype/StillImage" />
        <dc:title></dc:title>
        <dc:creator>
          <cc:Agent>
            <dc:title>j4p4n</dc:title>
          </cc:Agent>
        </dc:creator>
        <cc:license
           rdf:resource="http://creativecommons.org/publicdomain/zero/1.0/" />
      </cc:Work>
      <cc:License
         rdf:about="http://creativecommons.org/publicdomain/zero/1.0/">
        <cc:permits
           rdf:resource="http://creativecommons.org/ns#Reproduction" />
        <cc:permits
           rdf:resource="http://creativecommons.org/ns#Distribution" />
        <cc:permits
           rdf:resource="http://creativecommons.org/ns#DerivativeWorks" />
      </cc:License>
    </rdf:RDF>
  </metadata>
  <g
     inkscape:label="Layer 1"
     inkscape:groupmode="layer"
     id="layer1"
     transform="translate(-652.84053,192.4315)">
    <path
       style="fill:#000000"
       d="m 665.82073,513.29911 c -0.90847,-2.8875 -2.11698,-6.20888 -2.68557,-7.38084 -1.43362,-2.95493 -0.32176,-5.7244 3.72445,-9.27702 3.39878,-2.98417 4.41389,-5.09214 2.45216,-5.09214 -0.55,0 -0.98569,-1.6875 -0.9682,-3.75 0.0299,-3.52283 0.618,-4.78797 4.53245,-9.75 0.86777,-1.1 3.45831,-4.51504 5.75676,-7.58898 2.29844,-3.07393 7.20729,-9.37393 10.90855,-14 9.20488,-11.50482 26.77044,-35.13459 26.77044,-36.01247 0,-0.39379 2.95779,-3.04042 6.57286,-5.88139 3.61507,-2.84098 8.00257,-7.22769 9.75,-9.74826 1.74743,-2.52056 4.45656,-5.97471 6.02029,-7.67587 1.56373,-1.70117 3.91499,-4.66803 5.22502,-6.59303 1.31003,-1.925 5.09381,-6.65 8.4084,-10.5 6.54566,-7.60297 15.61002,-19.03977 20.79035,-26.23187 5.43962,-7.55208 13.23081,-16.13263 15.22251,-16.76477 1.03264,-0.32775 3.44264,-2.93759 5.35555,-5.79963 1.91291,-2.86205 6.55535,-8.90375 10.31652,-13.426 3.76118,-4.52225 9.9885,-12.32443 13.8385,-17.33818 3.85,-5.01376 9.27206,-11.88873 12.04903,-15.27773 2.77696,-3.389 6.14617,-7.73682 7.48712,-9.66182 2.04303,-2.93286 10.85152,-13.32562 20.34145,-24 5.28711,-5.94701 13.71027,-17.10092 14.51744,-19.22394 0.81682,-2.14838 2.75538,-4.69133 13.83112,-18.14323 2.32439,-2.82306 8.79176,-11.14209 14.37193,-18.48674 5.58018,-7.34465 12.0034,-15.55407 14.27384,-18.24317 11.01529,-13.04646 10.66669,-11.95638 4.27391,-13.36459 -4.18515,-0.92191 -7.64584,-3.49495 -7.64584,-5.68472 0,-2.74949 2.66261,-3.38493 6.50527,-1.55249 3.2526,1.55106 3.4906,1.50245 11.15911,-2.27912 8.39683,-4.14072 7.40413,-3.06611 26.74393,-28.95225 2.6996,-3.61336 6.5796,-8.48032 8.6223,-10.81545 2.6163,-2.99084 4.6384,-7.03354 6.8417,-13.67806 1.7202,-5.1878 3.1277,-9.68334 3.1277,-9.99011 0,-0.30676 -1.8,-1.74894 -4,-3.20483 -4.4978,-2.97647 -4.9854,-4.31084 -1.873,-5.12478 2.1185,-0.554 2.1175,-0.56346 -0.25,-2.35239 -1.7321,-1.30885 -2.0782,-2.09604 -1.2756,-2.90151 1.3913,-1.39638 8.9668,1.42984 9.8247,3.66532 0.7085,1.84649 -0.2195,3.57779 -1.4952,2.78935 -0.512,-0.31643 -0.9309,-0.18877 -0.9309,0.28369 0,1.44297 2.3006,3.25902 4.1286,3.25902 0.9507,0 2.387,0.65852 3.1919,1.46338 1.2845,1.2845 1.5461,0.91178 2.1401,-3.0492 0.3722,-2.48191 0.3836,-5.8472 0.025,-7.4784 -0.6279,-2.85869 -0.531,-2.95626 2.6813,-2.70081 3.0919,0.24587 3.312,0.0662 3.0449,-2.48497 -0.245,-2.3411 0.083,-2.75 2.2034,-2.75 1.5658,0 3.1585,-0.97497 4.2878,-2.62488 2.5668,-3.74999 9.96862,-10.61113 13.36982,-12.39313 1.5934,-0.8349 6.7526,-6.6849 11.4648,-13 4.7122,-6.31509 9.8738,-13.05699 11.4703,-14.98199 1.5964,-1.925 6.084,-7.325 9.9723,-12 3.8884,-4.675 8.296,-10.4368101 9.7946,-12.8040201 1.4987,-2.36721 4.6374,-6.83336 6.9749,-9.9247899 4.3265,-5.72199 5.2423,-7.86201 3,-7.01046 -3.486,1.32383 -27.2041,8.7591999 -33.75,10.5802199 -4.125,1.14755 -12.6678,3.59544 -18.984,5.43976 l -11.48402,3.3533 -6.04,7.9329901 c -6.5473,8.59934 -9.0552,12.40134 -12.9325,19.60567 -4.6979,8.729 -11.1893,17.59169 -18.1845,24.82733 -10.8792,11.25311 -13.0479,14.28089 -14.3248,20 -1.8335,8.2118 -5.9591,22.04159 -7.7236,25.89112 -0.8549,1.86512 -2.0421,6.23862 -2.6383,9.71891 -1.153,6.73137 -3.14684,8.85095 -5.41192,5.75327 -2.152,-2.94304 -1.44009,-9.07321 2.33767,-20.12938 1.98775,-5.81738 4.65385,-14.35656 5.92485,-18.97596 2.5953,-9.43334 2.2247,-8.81212 12.4611,-20.88608 7.9955,-9.43085 18.4523,-23.95735 26.5458,-36.8775 2.7248,-4.34969 8.0181,-11.15796 11.763,-15.1295001 7.0276,-7.45307 7.5186,-7.72456 23.69122,-13.0990799 2.475,-0.8225 8.1,-2.75405 12.5,-4.29232 4.4,-1.53828 11.375,-3.5775 15.5,-4.5316 4.125,-0.9541 10.8765,-2.79384 15.0034,-4.08831 4.1269,-1.29446 8.6269,-2.36168 10,-2.3716 1.6705,-0.0121 3.572,-1.31338 5.7466,-3.93274 1.7875,-2.15309 3.25,-4.17443 3.25,-4.49185 0,-0.49145 6.3142,-8.36786 14.075,-17.55738 1.1612,-1.375 7.3569,-9.30776 13.7681,-17.62836 6.4113,-8.3206 14.4825,-18.6706 17.9359,-23 14.9993,-18.80363 19.0205,-24.01992 20.3295,-26.37164 0.7653,-1.375 3.4165,-4.7892 5.8915,-7.58712 2.475,-2.79791 6.75,-7.93665 9.5,-11.41942 2.75,-3.48277 8.375,-10.35865 12.5,-15.27973 4.125,-4.92109 8.175,-9.94051 9,-11.15428 2.4881,-3.66053 11.8603,-11.48629 14.5709,-12.1666 5.484,-1.3764 9.6089,0.30319 15.5423,6.32859 3.1297,3.17821 5.9689,6.72483 6.3093,7.88138 0.6429,2.18471 -4.5807,9.25166 -17.0625,23.08345 -3.0703,3.40246 -6.2885,7.22746 -7.1516,8.5 -0.863,1.27255 -4.115,5.23873 -7.2266,8.81373 -3.1117,3.575 -6.518,7.58118 -7.5697,8.90262 -1.0517,1.32145 -3.9371,4.7386 -6.4121,7.59367 -2.475,2.85507 -7.425,9.30034 -11,14.32282 -3.575,5.02248 -8.8625,12.29093 -11.75,16.15211 -2.8875,3.86118 -5.25,7.30686 -5.25,7.65707 0,0.35022 -2.925,3.31699 -6.5,6.59282 -3.575,3.27584 -6.5,6.54362 -6.5,7.26173 0,0.71811 -1.3046,2.70222 -2.8991,4.40913 -5.2304,5.59922 -12.5654,14.47697 -18.266,22.10803 -3.0816,4.125 -7.2648,9.3 -9.2961,11.5 -2.0314,2.2 -5.1757,6.1580099 -6.9874,8.7955699 -1.8117,2.63756 -5.7214,7.36256 -8.6881,10.5 -2.9668,3.1374401 -6.5609,7.5108201 -7.9869,9.7186301 -1.426,2.2078 -4.9731,6.61873 -7.8825,9.80207 -3.8798,4.24514 -4.9935,6.08409 -4.1784,6.8992 1.5921,1.59209 7.9889,1.12295 9.833,-0.72114 1.2223,-1.22223 1.874,-1.3056 2.9868,-0.38207 1.1279,0.9361 1.907,0.72689 3.7537,-1.00798 2.0616,-1.93677 2.6475,-2.04476 5.0802,-0.93635 2.4071,1.09676 2.9232,1.01591 4.1403,-0.64863 0.7648,-1.04586 1.3905,-2.44241 1.3905,-3.10344 0,-1.47355 2.3226,-2.47098 3.6636,-1.57334 0.5403,0.36161 1.2728,1.44498 1.628,2.40748 1.0318,2.79654 6.1355,2.27323 8.1742,-0.83813 1.2852,-1.96152 2.2557,-2.4476 4.0085,-2.00767 1.8632,0.46762 2.4343,0.096 2.9383,-1.91187 0.7009,-2.79263 3.0518,-3.33041 3.9804,-0.91054 0.3339,0.86998 0.607,3.06488 0.607,4.87755 0,3.43001 2.15,6.18404 3.9562,5.06773 0.5741,-0.35481 1.0438,-1.51855 1.0438,-2.58609 0,-1.27431 0.6869,-1.94098 2,-1.94098 1.8079,0 2,0.66667 2,6.94098 0,7.40274 0.6755,8.55902 5,8.55902 2.1457,0 2.5142,0.47152 2.6,3.32727 0.1229,4.09085 4.3577,8.86418 6.6859,7.53614 1.6972,-0.96811 24.0042,-21.19578 41.6265,-37.74626 6.3732,-5.98556 13.7417,-12.6042301 16.3745,-14.7081501 5.497,-4.39288 18.7115,-16.2225599 29.5003,-26.4089999 4.0777,-3.85 8.1562,-7.40953 9.0634,-7.91006 0.9072,-0.50054 3.4494,-2.57381 5.6494,-4.60727 2.2,-2.03346 6.475,-5.89893 9.5,-8.58994 3.025,-2.691 5.83,-5.40186 6.2333,-6.02414 1.1338,-1.74925 20.499,-18.33666 26.7166,-22.88426 8.0426,-5.88244 12.0001,-8.12895 16.8351,-9.55662 4.2799,-1.26376 4.2898,-1.26063 8.358,2.65352 6.6686,6.41603 11.857,13.99664 11.857,17.32376 0,2.56816 -1.2878,4.02143 -9.1204,10.2927 -5.0163,4.01627 -11.2038,9.26051 -13.75,11.65387 -2.5463,2.39336 -7.5546,6.426 -11.1296,8.96143 -7.2123,5.11503 -13.304,9.97936 -18.8352,15.04024 -2.0156,1.84428 -6.0493,5.17745 -8.9637,7.40704 -2.9143,2.22959 -5.7064,4.8153499 -6.2045,5.7461399 -0.4982,0.93079 -4.1884,4.34762 -8.2004,7.59296 -4.0121,3.24535 -8.1339,6.9368401 -9.1595,8.2033201 -1.0256,1.26649 -4.2885,4.09318 -7.2507,6.28155 -2.9623,2.18837 -5.386,4.37684 -5.386,4.86328 0,0.48645 4.1625,3.0024 9.25,5.59101 5.0875,2.58862 9.925,5.29009 10.75,6.00328 0.825,0.71319 5.775,3.37345 11,5.91168 5.225,2.53823 10.244,5.02622 11.1533,5.52885 2.9398,1.62497 20.005,8.01766 21.403,8.01766 0.7456,0 3.6783,1.36948 6.5171,3.04328 2.8388,1.6738 8.0446,4.35059 11.5685,5.9484 3.5239,1.59782 9.9521,5.40334 14.2849,8.45672 5.9056,4.16182 8.7486,5.5516 11.3564,5.5516 3.0924,0 11.5666,2.70728 20.2168,6.45877 7.8045,3.38471 13.9576,3.84946 41.7031,3.14986 15.0133,-0.37856 28.8719,-1.02693 30.7969,-1.44082 l 3.5,-0.75253 -0.3235,-8.45764 c -0.231,-6.04012 0.1234,-9.51356 1.2401,-12.15174 0.8599,-2.03176 1.2935,-4.39773 0.9635,-5.25772 -1.2499,-3.25716 2.1774,-6.17029 9.2919,-7.8979 11.4456,-2.77932 22.3081,-4.88356 41.328,-8.00591 4.675,-0.76746 9.7983,-1.9134 11.3852,-2.54654 1.5869,-0.63313 10.5869,-2.23981 20,-3.5704 15.2409,-2.15435 17.3611,-2.2584 19.3648,-0.95028 2.9535,1.92824 2.9068,5.22263 -0.09,6.36206 -1.2871,0.48934 -7.4746,1.6347 -13.75,2.54526 -6.2754,0.91055 -12.7599,2.05186 -14.4099,2.53625 -1.65,0.48439 -6.15,1.39046 -10,2.0135 -3.85,0.62303 -8.8868,1.54521 -11.1928,2.04928 -2.3061,0.50408 -7.3212,0.9165 -11.1447,0.9165 -4.0462,0 -9.6081,0.81381 -13.3072,1.94712 -3.4954,1.07091 -8.7846,2.26275 -11.7538,2.64853 -3.0494,0.3962 -6.176,1.47881 -7.1851,2.48795 -5.1959,5.1959 -5.0142,23.9164 0.2321,23.9164 1.9275,0 2.0183,-0.41728 1.4698,-6.75 -0.3699,-4.27068 -0.1317,-8.03557 0.6486,-10.25 1.0599,-3.00844 1.7247,-3.53537 4.7331,-3.75182 2.716,-0.19542 3.8832,0.28301 5.2105,2.13577 1.8034,2.51715 9.3997,21.68602 16.8773,42.58884 1.0768,3.01003 2.3975,5.91253 2.935,6.45 0.5375,0.53747 0.9772,2.65074 0.9772,4.69617 0,2.04543 0.6153,4.99293 1.3673,6.55 3.7283,7.7196 5.6836,12.67009 8.6225,21.83104 1.7644,5.5 4.4876,12.7 6.0517,16 1.564,3.3 3.1455,7.69247 3.5144,9.76105 0.369,2.06857 1.0698,4.00763 1.5575,4.30901 0.4876,0.30139 0.8866,1.40952 0.8866,2.46252 0,1.053 1.5961,5.18895 3.5468,9.19099 1.9507,4.00203 5.4099,11.51914 7.687,16.70467 2.2772,5.18553 5.3454,10.81053 6.8183,12.5 1.473,1.68947 2.9996,4.19676 3.3925,5.57176 0.7683,2.68864 1.7024,4.90511 6.3211,15 1.6356,3.575 3.4838,8.075 4.1071,10 0.6822,2.10702 2.3117,4.16978 4.0943,5.18289 1.7086,0.97102 3.2523,2.87453 3.6495,4.5 0.3786,1.54941 1.5198,3.8903 2.5359,5.20197 1.0161,1.31167 1.8475,2.91175 1.8475,3.55572 0,0.64397 1.125,2.69571 2.5,4.55942 1.375,1.86371 2.5,3.8882 2.5,4.49886 0,1.82173 -6.5083,8.36371 -9.4232,9.47195 -5.2862,2.00982 -8.2851,1.30209 -11.2842,-2.66303 -3.4357,-4.54243 -7.9995,-9.08058 -10.452,-10.39311 -2.3968,-1.28271 -2.3289,-0.96513 0.6594,3.08533 3.0118,4.08221 3.1778,7.07662 0.5255,9.4769 -1.7093,1.5469 -2.3814,1.61832 -5.0046,0.53176 -1.6665,-0.69031 -4.293,-2.66216 -5.8366,-4.38189 -1.5436,-1.71972 -6.829,-6.91242 -11.7454,-11.53932 -4.9164,-4.6269 -10.0639,-9.88214 -11.4389,-11.67831 -1.375,-1.79616 -4.4216,-5.76608 -6.7702,-8.82204 -5.4204,-7.05306 -9.1196,-13.14269 -13.7066,-22.56431 -2.0022,-4.11246 -4.1765,-7.81807 -4.8318,-8.23468 -0.6553,-0.41662 -3.6664,-0.77538 -6.6914,-0.79724 -3.025,-0.0219 -7.3,-0.45221 -9.5,-0.95631 -2.2,-0.5041 -10.3,-1.00523 -18,-1.11362 -7.7,-0.10839 -18.5,-0.87833 -24,-1.71098 -18.4391,-2.79152 -34.9235,-2.01196 -46.2057,2.1851 -4.68,1.74103 -22.7646,5.26317 -34.2943,6.67914 -4.125,0.5066 -17.7917,0.94281 -30.3705,0.96936 -19.422,0.041 -23.132,-0.18837 -24.6047,-1.52115 -0.9538,-0.86318 -4.8371,-2.2215 -8.6295,-3.01849 -3.7924,-0.79698 -11.1703,-2.80346 -16.3953,-4.45883 -5.225,-1.65537 -10.2619,-3.01771 -11.1931,-3.02743 -4.0938,-0.0427 -31.5843,-10.3191 -36.3164,-13.57568 -1.6448,-1.13191 -6.1405,-3.34041 -9.9905,-4.90779 -3.85,-1.56737 -7.9,-3.60768 -9,-4.53402 -4.5716,-3.84986 -15.4297,-9.00017 -18.9746,-9.00017 -4.7838,0 -12.6788,-2.42499 -19.5402,-6.0019 l -5.5148,-2.8749 -22.4182,0.5986 -22.4181,0.5986 -6.0671,5.39555 c -3.3368,2.96755 -8.2115,7.39546 -10.8325,9.8398 -2.621,2.44434 -5.2572,4.44425 -5.8584,4.44425 -0.6683,0 -0.8476,0.97749 -0.4615,2.51598 0.5171,2.0601 0.1743,2.6898 -1.8916,3.47525 -1.3876,0.5276 -2.523,1.65529 -2.523,2.50598 0,0.85069 -1.4269,4.57432 -3.171,8.27475 -2.6334,5.58753 -3.2831,8.4232 -3.8324,16.72804 -0.4793,7.24486 -1.247,11.13695 -2.7865,14.12667 -2.3317,4.52825 -3.7052,5.37333 -8.7329,5.37333 -1.8475,0 -3.6373,0.45 -3.9772,1 -0.9902,1.60207 -3.7639,1.15907 -5.9648,-0.95266 -1.1194,-1.07396 -3.0322,-2.85848 -4.2508,-3.96559 -1.9899,-1.80788 -2.1549,-2.66318 -1.6195,-8.39638 0.4507,-4.82627 0.1435,-7.70096 -1.2593,-11.78441 -1.0205,-2.97053 -1.7156,-7.08846 -1.5446,-9.15096 0.1805,-2.17637 -0.1351,-3.75 -0.752,-3.75 -2.1327,0 -3.8869,4.66861 -4.4385,11.81232 -0.4562,5.90882 -1.1506,8.19698 -3.6176,11.92144 -1.6791,2.53502 -3.05292,5.15188 -3.05292,5.81524 0,0.66336 -0.675,1.76631 -1.5,2.451 -0.825,0.68469 -1.5,2.56024 -1.5,4.1679 0,3.72611 -3.9868,7.8321 -7.6046,7.8321 -3.9444,0 -13.4277,-5.07107 -15.3606,-8.21382 l -1.669,-2.71382 -5.5089,5.71382 c -3.0299,3.1426 -8.1171,8.75132 -11.305,12.46382 -3.1879,3.7125 -6.2058,6.75 -6.7064,6.75 -0.5006,0 -5.6554,4.1625 -11.4552,9.25 -5.79978,5.0875 -11.52273,9.925 -12.71768,10.75 -1.19495,0.825 -3.56977,2.85 -5.27738,4.5 -6.74248,6.515 -17.68254,16.05795 -19.59869,17.09581 -1.84678,1.0003 -28.68161,26.13096 -31.21312,29.23091 -0.59589,0.72969 -3.78344,3.86022 -7.08344,6.95671 -3.3,3.0965 -10.89239,10.48698 -16.87198,16.42328 -5.97958,5.93631 -11.21052,10.79329 -11.6243,10.79329 -0.41379,0 -2.43733,1.54339 -4.49676,3.42976 -2.05943,1.88637 -6.18963,5.14887 -9.17822,7.25 -4.91225,3.45356 -21.36528,18.43355 -33.47131,30.47461 -2.57371,2.55991 -5.66021,4.96565 -6.85888,5.34609 -4.14211,1.31466 -19.89528,16.48681 -23.49453,22.628 -4.01663,6.85333 -5.04083,7.96259 -12.64289,13.69284 -6.43854,4.85322 -15.86113,14.49026 -15.86113,16.22212 0,2.53191 -33.26742,33.52737 -34.90119,32.51765 -0.55602,-0.34364 -1.71617,0.45151 -2.57811,1.76699 -2.45628,3.74875 -17.21278,15.67194 -19.39608,15.67194 -1.49272,0 -2.36017,-1.25956 -3.61566,-5.25 z m 5.49104,-6.25 c -0.68469,-0.825 -1.69489,-1.5 -2.24489,-1.5 -0.55783,0 -0.44954,0.66326 0.24489,1.5 0.68469,0.825 1.69489,1.5 2.24489,1.5 0.55783,0 0.44954,-0.66326 -0.24489,-1.5 z m 18.31122,-14.11444 c 5.71805,-5.95694 10.53023,-11.87988 10.96695,-13.49837 0.98308,-3.64333 23.93359,-26.23502 40.52071,-39.88719 1.6706,-1.375 5.21178,-4.55617 7.86929,-7.06927 2.6575,-2.5131 7.30683,-6.7382 10.33183,-9.38912 10.90513,-9.55657 22.54647,-20.16279 28.96078,-26.38566 3.59657,-3.48922 7.88922,-7.29452 9.53922,-8.45622 1.65,-1.16169 7.73734,-6.40687 13.52742,-11.65595 18.20835,-16.50703 21.27976,-19.19895 23.7592,-20.82354 1.32834,-0.87036 11.31698,-10.38847 22.19697,-21.15136 20.96131,-20.73569 37.38141,-36.27525 50.51641,-47.80743 9.56294,-8.39601 11.79174,-10.52237 49.00001,-46.7478 28.0789,-27.33725 36.3745,-34.98544 50.37022,-46.43942 3.6464,-2.98418 9.8544,-8.15918 13.7955,-11.5 3.9412,-3.34083 9.1162,-7.52133 11.5,-9.29002 2.3839,-1.76868 7.2575,-6.04368 10.8304,-9.5 3.5729,-3.45631 8.2979,-7.79959 10.5,-9.65171 2.2021,-1.85213 8.9539,-7.99683 15.0039,-13.6549 13.1714,-12.31812 16.9262,-15.4776 18.3943,-15.4776 1.5955,0 1.3591,-1.60375 -0.5124,-3.47518 -1.0972,-1.09722 -3.2699,-1.59233 -6.75,-1.53816 -2.8225,0.0439 -8.1602,-0.22096 -11.8614,-0.58865 -5.7565,-0.57187 -6.8223,-0.42675 -7.3712,1.00371 -0.5771,1.50395 -5.2723,4.59828 -6.9773,4.59828 -0.3724,0 -3.3857,-2.8125 -6.6961,-6.25 -3.445,-3.5772 -6.2022,-5.72616 -6.4474,-5.02507 -0.4045,1.1563 9.1353,14.71373 12.0632,17.14371 1.0521,0.87314 2.359,0.41039 5.7596,-2.03928 2.4193,-1.7428 4.9867,-3.99236 5.7054,-4.99904 1.3102,-1.83527 5.1933,-2.57152 5.1933,-0.98468 0,1.10339 -27.7683,28.90554 -33.8035,33.84476 -7.7399,6.33428 -21.0394,18.92659 -24.9399,23.61377 -1.2339,1.48271 -2.8964,2.69583 -3.6944,2.69583 -0.7981,0 -4.368,2.91688 -7.93312,6.48195 -3.565,3.56507 -9.3275,8.83817 -12.8055,11.718 -3.478,2.87983 -18.6986,17.54896 -33.8236,32.59805 -15.125,15.0491 -29.48536,29.0135 -31.91189,31.032 -16.19915,13.47517 -28.76657,25.18225 -54.93046,51.17 -16.33496,16.225 -33.74043,33.19372 -38.6788,37.70827 -4.93837,4.51456 -11.2465,10.36456 -14.01807,13 -2.77156,2.63545 -6.36531,5.46673 -7.98611,6.29173 -3.31941,1.68962 -4.73072,2.79759 -15.40417,12.09332 -4.16378,3.62632 -10.20912,9.6037 -13.43409,13.28306 -3.22498,3.67935 -7.27498,7.40309 -9,8.27497 -1.72503,0.87188 -5.61142,3.68814 -8.63642,6.25837 -3.025,2.57022 -8.425,6.62925 -12,9.02006 -3.575,2.39082 -8.98922,6.64718 -12.0316,9.45858 -3.04238,2.8114 -7.42988,6.81728 -9.75,8.90195 -2.32012,2.08466 -4.2184,4.22852 -4.2184,4.76412 0,0.53561 -1.9125,3.40166 -4.25,6.36902 -2.3375,2.96735 -5.375,7.07844 -6.75,9.13575 -1.375,2.05731 -6.2125,7.68614 -10.75,12.50851 -4.5375,4.82237 -8.25,9.49107 -8.25,10.37487 0,0.88381 -1.22543,2.07283 -2.72317,2.64227 -1.49774,0.56944 -3.41024,1.70458 -4.25,2.52253 -0.83976,0.81796 -4.42721,3.49091 -7.97211,5.93991 -3.54491,2.44899 -5.90741,4.45271 -5.25,4.45271 0.6574,0 1.19528,0.58194 1.19528,1.2932 0,1.06842 3.9133,2.97721 7.31122,3.56619 0.44617,0.0773 5.39617,-4.63589 11,-10.47383 z m -10.60145,-12.13556 c 2.01398,-3.15424 15.06271,-19.42853 18.79117,-23.43623 1.37448,-1.47742 2.49906,-2.98492 2.49906,-3.35 0,-1.15089 17.03938,-17.75772 17.62223,-17.17487 0.30556,0.30556 -0.60944,2.27002 -2.03333,4.36546 -3.5418,5.21222 -3.27048,6.4783 0.39883,1.86109 1.64324,-2.06776 3.83079,-4.49214 4.8612,-5.38751 5.84007,-5.07467 11.79691,-10.98018 12.78946,-12.67923 0.62612,-1.07179 1.8059,-1.89583 2.62173,-1.8312 0.95427,0.0756 1.31681,-0.51931 1.01644,-1.66793 -0.30079,-1.15022 1.52372,-4.13196 5.12827,-8.38097 3.07734,-3.62755 5.59517,-6.81448 5.59517,-7.08207 0,-1.74249 -2.52757,0.62128 -9.05305,8.46637 -4.09582,4.92409 -8.40206,9.46942 -9.56942,10.10072 -1.16736,0.63131 -3.10831,2.90189 -4.31323,5.04575 -2.20345,3.92051 -5.52943,6.57508 -6.42418,5.12734 -0.26469,-0.42828 1.53069,-3.20149 3.98974,-6.16268 2.45905,-2.96118 4.949,-6.27713 5.53322,-7.36876 0.58423,-1.09163 4.16153,-6.03364 7.94957,-10.98223 6.08171,-7.94498 7.76824,-10.71305 6.52723,-10.71305 -0.87115,0 -7.55318,6.89473 -10.21653,10.54175 -1.60784,2.20167 -3.72752,4.89296 -4.71039,5.98064 -0.98287,1.08769 -3.23287,3.87195 -5,6.18726 -1.76713,2.31531 -7.03796,8.75806 -11.71296,14.31722 -4.675,5.55917 -9.18766,11.31482 -10.02813,12.79035 -0.84048,1.47553 -3.96023,5.15778 -6.93279,8.18278 -2.97256,3.025 -7.39101,8.2 -9.81879,11.5 -2.42777,3.3 -5.79861,7.15945 -7.49075,8.57656 -2.08685,1.74767 -2.87004,3.11493 -2.43447,4.25 0.92962,2.42256 2.4112,2.06126 4.4147,-1.07656 z m 95.08393,-86.4826 c 4.19867,-5.44226 6.09404,-7.30229 12.2063,-11.97875 1.925,-1.47281 5.91365,-4.95277 8.86366,-7.73324 2.95002,-2.78048 5.66778,-5.05541 6.03948,-5.05541 0.37169,0 6.95804,-6.09041 14.63633,-13.53424 7.67829,-7.44383 15.84375,-14.98133 18.14546,-16.75 2.30171,-1.76867 4.42248,-4.12742 4.71281,-5.24167 0.65221,-2.50306 26.15964,-27.00669 47.60226,-45.72895 4.125,-3.60167 10.55242,-9.94906 14.28316,-14.10531 3.73073,-4.15625 11.38073,-11.56278 17,-16.45895 5.61926,-4.89617 12.76116,-11.55235 15.87085,-14.79151 7.7384,-8.0604 10.5654,-10.79226 16.096,-15.55424 2.6125,-2.24942 4.7469,-4.37004 4.743,-4.71249 0,-0.34245 -2.1374,-0.72158 -4.7414,-0.84252 -5.1158,-0.23759 -7.5509,-2.22527 -7.0394,-5.74601 0.2372,-1.63258 1.5797,-2.19606 7.6434,-3.20825 7.5984,-1.26835 12.3028,-3.8413 21.6444,-11.83764 3.6071,-3.08766 3.8739,-3.62759 2.7161,-5.49678 -1.529,-2.46863 -0.8259,-3.99144 1.8429,-3.99144 2.6632,0 2.4343,-1.0283 -0.809,-3.63542 -2.5475,-2.0478 -2.6103,-2.26507 -0.8526,-2.95114 1.0437,-0.40733 3.2091,-0.24551 4.8123,0.3596 2.137,0.80663 2.8155,0.80264 2.543,-0.015 -0.4174,-1.25213 -1.7783,-2.0467 -6.5027,-3.79679 -4.8818,-1.80836 -4.2025,-3.96125 1.25,-3.96125 2.475,0 4.5,-0.17004 4.5,-0.37788 0,-0.20783 -0.6528,-1.94009 -1.4505,-3.84947 -1.0509,-2.51498 -1.1489,-3.7733 -0.3557,-4.56649 0.7932,-0.79319 0.7584,-1.90727 -0.1262,-4.04303 -0.6717,-1.62148 -1.0741,-4.23401 -0.8944,-5.80564 l 0.3268,-2.85749 2.5,4 c 2.2836,3.65374 2.5286,3.79831 2.83,1.67011 0.1835,-1.29535 -0.7981,-4.0346 -2.2106,-6.16908 -5.3618,-8.10211 -4.0218,-12.82809 1.8668,-6.58434 l 3.3898,3.59428 -0.5771,-3.75549 c -0.3174,-2.06551 -0.9645,-4.5134 -1.438,-5.43974 -2.3256,-4.54972 0.7473,-8.2849 3.1391,-3.81574 2.5932,4.84546 5.0077,-0.69323 3.091,-7.09059 -1.3903,-4.64025 -3.3845,-5.02926 -5.059,-0.98682 -0.6658,1.60742 -2.5079,4.19492 -4.0935,5.75 -1.5856,1.55508 -2.8955,3.40403 -2.9107,4.10879 -0.015,0.70477 -0.6448,1.51816 -1.399,1.80755 -0.7541,0.28939 -5.3666,5.77411 -10.25,12.18827 -4.8833,6.41415 -11.8712,14.82576 -15.5286,18.69245 -3.6573,3.86669 -8.3823,9.19901 -10.5,11.84959 -2.1176,2.65058 -5.9263,7.15058 -8.46379,10 -2.53747,2.84942 -5.35902,6.75576 -6.27012,8.68076 -0.91109,1.925 -4.3624,6.425 -7.66957,10 -3.30717,3.575 -9.45906,10.98273 -13.67086,16.46161 -4.2118,5.47889 -8.22797,10.65389 -8.92481,11.5 -2.31532,2.81129 -28.34542,35.45968 -32.12901,40.298 -8.73812,11.17396 -12.9634,16.37894 -16.78263,20.67396 -2.23332,2.51154 -5.83332,6.81346 -8,9.55984 -8.79989,11.15428 -19.04747,23.31728 -24.01739,28.50659 -2.89712,3.025 -7.26517,8.0862 -9.70678,11.24711 -3.86129,4.99881 -17.63202,19.96275 -34.21525,37.17992 -2.75,2.85512 -7.25,8.194 -10,11.86417 -2.75,3.67017 -5.5625,6.89196 -6.25,7.15953 -0.6875,0.26758 -1.25,0.92975 -1.25,1.47151 0,1.93232 15.76824,-10.93709 19.7937,-16.15484 z m 175.28711,-188.5174 c -1.9929,-1.62925 -2.064,-2.12951 -1.0293,-7.25 0.6113,-3.025 1.4123,-8.82783 1.78,-12.89517 0.5049,-5.58599 1.1119,-7.66546 2.4811,-8.5 1.4818,-0.90316 2.1885,-0.6485 3.8717,1.39517 1.9189,2.32996 2.0132,3.31618 1.3866,14.5 -0.5263,9.39318 -1.0287,12.27154 -2.3128,13.25 -2.2168,1.68923 -3.6402,1.57401 -6.1773,-0.5 z M 750.3068,391.1248 c 0.003,-0.50838 -1.12003,0.13256 -2.49503,1.42431 -1.375,1.29175 -2.48382,3.05769 -2.46404,3.92431 0.0244,1.06715 0.82961,0.60746 2.49504,-1.42431 1.35248,-1.65 2.4613,-3.41594 2.46403,-3.92431 z m 18.65881,-10.67523 c 6.15636,-7.74859 19.49648,-24.04888 20.88608,-25.52068 0.58171,-0.61612 3.2857,-3.92231 6.00887,-7.34709 2.72316,-3.42478 7.65121,-9.49101 10.95121,-13.48052 3.3,-3.98951 10.275,-12.53572 15.5,-18.99157 11.86743,-14.66303 27.72801,-33.58715 36.92784,-44.0606 3.86493,-4.4 7.94875,-9.69206 9.07515,-11.76013 1.1264,-2.06808 3.17041,-4.99308 4.54226,-6.5 2.26087,-2.4835 11.37075,-14.75469 18.25749,-24.59322 1.48349,-2.11934 3.53011,-4.59434 4.54805,-5.5 1.01793,-0.90566 4.30966,-4.94433 7.31495,-8.97482 3.54219,-4.75054 6.65879,-7.82731 8.86045,-8.74722 1.93024,-0.8065 5.58059,-4.11812 8.45654,-7.67183 2.78315,-3.43903 6.70801,-8.22393 8.72191,-10.63311 2.01391,-2.40918 4.74707,-5.97978 6.07367,-7.93465 2.134,-3.14468 26.1375,-32.34202 42.4909,-51.68502 3.2549,-3.85 6.1714,-7.62064 6.481,-8.3792 0.3096,-0.75856 3.3506,-4.2084 6.7579,-7.66631 9.57822,-9.7207 18.49192,-21.26478 18.49192,-23.94872 0,-3.18052 -1.7063,-7.50577 -2.9611,-7.50577 -0.5558,0 -2.2432,1.9125 -3.7498,4.25 -1.5065,2.3375 -5.26752,7.4 -8.35762,11.25 -3.0902,3.85 -6.7527,8.80661 -8.139,11.01468 -1.3863,2.20807 -3.2567,4.62567 -4.1565,5.37244 -0.8998,0.74678 -1.636,2.1593 -1.636,3.13894 0,0.97964 -1.3261,3.28704 -2.9468,5.12755 -1.6207,1.84052 -6.2332,7.46242 -10.25,12.49312 -4.0168,5.03071 -9.9086,12.23071 -13.0931,16 -3.1844,3.7693 -8.5028,10.22827 -11.8187,14.35327 -3.316,4.125 -8.1694,9.75 -10.78544,12.5 -2.61605,2.75 -6.2579,7.25 -8.09299,10 -1.83509,2.75 -5.73873,7.55409 -8.67475,10.67576 -2.93603,3.12167 -5.33823,6.08008 -5.33823,6.57425 0,0.49416 -1.79243,2.66507 -3.98317,4.82423 -2.19075,2.15917 -3.99075,4.2765 -4,4.70518 -0.0148,0.68482 -1.67164,2.95761 -10.00222,13.72058 -1.06426,1.375 -3.97792,4.73113 -6.47481,7.45806 -2.49689,2.72694 -4.5398,5.24558 -4.5398,5.59699 0,0.35141 -0.95102,1.72028 -2.11338,3.04194 -1.16236,1.32166 -3.28285,3.97801 -4.71219,5.90301 -1.42935,1.925 -4.41583,5.59808 -6.63662,8.1624 -6.29413,7.26775 -11.80174,13.81811 -16.96469,20.17661 -6.29562,7.75346 -8.39868,10.26984 -12.62091,15.10129 -3.25626,3.72612 -5.86905,7.26311 -8.45221,11.44197 -0.55,0.88975 -3.18924,3.84977 -5.86499,6.57782 -2.67574,2.72805 -7.57025,8.57805 -10.8767,13 -3.30645,4.42195 -7.73395,9.83991 -9.83889,12.03991 -2.10494,2.2 -6.60819,7.375 -10.00722,11.5 -3.39902,4.125 -7.15106,8.4 -8.33786,9.5 -1.1868,1.1 -3.44451,4.00558 -5.01714,6.45684 -1.57263,2.45126 -4.33412,6.05126 -6.13664,8 -1.80252,1.94874 -4.62981,5.41073 -6.28288,7.69332 -1.65307,2.28259 -3.4853,4.44665 -4.07163,4.80902 -1.56563,0.96761 -1.29982,4.54082 0.33779,4.54082 0.77212,0 3.58462,-2.74479 6.25,-6.09954 z M 1501.3118,262.11434 c 0,-0.23912 -3.2625,-3.77957 -7.25,-7.86766 -11.5094,-11.79972 -20.0053,-22.3684 -23.2759,-28.95472 -2.9596,-5.95998 -5.4741,-8.43114 -5.4741,-5.37976 0,2.97478 7.4226,14.25703 15.5507,23.63691 12.9173,14.9066 16.961,19 18.7692,19 0.924,0 1.6801,-0.19565 1.6801,-0.43477 z M 990.74298,240.79911 c 0.768,-4.43085 0.879,-7.0435 0.4113,-9.68074 -0.2433,-1.37142 0.3795,-2.10819 2.15,-2.54331 2.7718,-0.68122 6.96452,-7.1438 6.99102,-10.77595 0.018,-2.51913 -1.74092,-3.04578 -2.60992,-0.78125 -0.31,0.80781 -4.0084,4.47945 -8.2186,8.1592 -6.9229,6.0506 -7.7079,7.11136 -8.2077,11.09159 -0.4877,3.88434 -0.2529,4.62519 2,6.30912 4.2464,3.17395 6.7276,2.58425 7.4839,-1.77866 z m 36.45552,-3.36037 c 2.1177,-0.7382 3.8435,-2.40071 5.1493,-4.96016 2.7723,-5.43416 2.4987,-6.61605 -2.0713,-8.94749 -4.4642,-2.27745 -4.4238,-3.98198 0.094,-3.98198 1.6175,0 2.9409,-0.43417 2.9409,-0.96482 0,-1.80786 -3.8581,-3.03518 -9.5412,-3.03518 -5.0132,0 -5.5881,0.20346 -4.9449,1.75 0.4003,0.9625 1.4609,6.13701 2.357,11.49891 0.896,5.36191 1.8995,9.74941 2.2299,9.75 0.3304,6e-4 2.0341,-0.49858 3.786,-1.10928 z m -0.5729,-25.67376 c 7.783,-0.43975 9.1177,-1.78834 5.9758,-6.03806 -3.2181,-4.35284 -5.4191,-9.15933 -4.7155,-10.2978 0.3936,-0.63687 2.2022,0.44862 4.5226,2.71439 4.706,4.59536 6.0663,3.81966 2.9682,-1.69266 -1.7122,-3.04653 -2.0034,-4.36326 -1.1529,-5.21378 0.8505,-0.85051 1.647,-0.81996 3.1536,0.12096 2.4899,1.55496 3.9449,0.76504 3.9011,-2.11794 -0.033,-2.1534 -3.092,-6.69098 -4.5112,-6.69098 -0.3981,0 -4.8943,3.8282 -9.9915,8.50712 -8.9632,8.22762 -9.3,8.6947 -10.2514,14.21659 -1.1387,6.60941 -0.6762,8.72826 1.6664,7.63419 0.8916,-0.41637 4.6872,-0.93029 8.4348,-1.14203 z m 268.6862,0.34315 c 0,-0.24254 -0.45,-0.7191 -1,-1.05902 -0.55,-0.33992 -1,-0.14148 -1,0.44098 0,0.58246 0.45,1.05902 1,1.05902 0.55,0 1,-0.19844 1,-0.44098 z m 158.5,-11.0614 c 0,-6.83754 1.609,-8.14786 4.0663,-3.3114 3.0654,6.03331 3.8761,6.53183 4.4337,2.7263 0.7155,-4.88358 3.7741,-4.61309 6.6429,0.58748 4.5653,8.27587 6.43,8.6062 5.6449,1 -0.5268,-5.10435 -0.4162,-5.5 1.5371,-5.5 1.1585,0 2.6454,1.01036 3.3075,2.24734 l 1.2027,2.24733 0.9158,-2.74733 c 0.5556,-1.66696 1.6381,-2.74734 2.7526,-2.74734 1.6565,0 1.5469,-0.58026 -1.1166,-5.91045 -1.6244,-3.25075 -3.5726,-8.08825 -4.3292,-10.75 -0.7567,-2.66175 -2.7305,-8.88955 -4.3864,-13.83955 -1.6558,-4.95 -4.8589,-15.075 -7.1179,-22.5 -2.259,-7.425 -4.5876,-14.85 -5.1747,-16.5 -0.5871,-1.65 -1.5364,-4.35 -2.1097,-6 -0.5732,-1.65 -2.2577,-6.375 -3.7432,-10.5 -1.4856,-4.125 -3.2676,-9.525 -3.9601,-12 -2.0808,-7.43669 -2.1701,-7.51045 -8.9663,-7.40208 -3.3774,0.0539 -8.7189,0.80988 -11.87,1.68006 -15.7176,4.34034 -45.7351,4.69346 -64.7294,0.76147 -4.95,-1.02469 -10.173,-1.63764 -11.6066,-1.3621 -1.5333,0.29468 -5.2715,-0.56517 -9.0785,-2.08819 -3.5595,-1.42404 -6.8171,-2.58916 -7.239,-2.58916 -0.4219,0 -1.9616,-0.84543 -3.4215,-1.87873 -1.4599,-1.03329 -4.4544,-2.09715 -6.6544,-2.36411 -4.3296,-0.52539 -18.2375,-6.44763 -22.4422,-9.5563 -1.4281,-1.05582 -3.7128,-2.25327 -5.0772,-2.661 -1.3643,-0.40773 -4.7306,-1.98534 -7.4806,-3.5058 -2.75,-1.52046 -8.375,-3.97803 -12.5,-5.46127 -4.125,-1.48323 -9.3984,-3.75434 -11.7188,-5.04692 -2.3203,-1.29257 -5.9203,-2.90732 -8,-3.58832 -5.6823,-1.86071 -20.6886,-9.38377 -24.468,-12.26648 -1.8303,-1.39598 -5.5745,-3.5827 -8.3205,-4.85938 -2.746,-1.27667 -6.6941,-3.37687 -8.7736,-4.66711 -4.9226,-3.05428 -6.5546,-2.54642 -15.7191,4.89184 -9.9635,8.08672 -21.8677,17.98435 -24.6122,20.46358 -1.2176,1.1 -4.7456,4.01974 -7.8399,6.48832 -7.8339,6.24978 -13.9116,17.43281 -10.5899,19.48571 0.5269,0.32564 1.94,-1.69076 3.1403,-4.48089 2.2547,-5.24125 5.3409,-7.95394 7.0755,-6.21929 0.6122,0.61218 0.213,2.18308 -1.1036,4.34264 -2.1238,3.48372 -2.7709,7.88351 -1.1594,7.88351 0.5009,0 1.8948,-2.03263 3.0974,-4.51695 2.3929,-4.94313 5.5148,-7.36004 7.2568,-5.61807 0.716,0.71607 0.7258,1.46148 0.031,2.34264 -0.5609,0.71081 -1.3154,2.52988 -1.6767,4.04238 -0.5499,2.30187 -0.3312,2.75 1.3418,2.75 1.3251,0 2.6865,-1.34816 4.0394,-4 1.8024,-3.53309 5,-5.52279 5,-3.11129 0,0.48879 1.5312,1.17597 3.4027,1.52706 1.9723,0.37001 4.0503,1.62665 4.9431,2.98934 0.8896,1.35765 2.9699,2.61914 4.9236,2.98565 4.6519,0.87271 7.588,3.11171 6.0834,4.63903 -0.8726,0.88579 -3.3272,0.85587 -10.2576,-0.12503 -6.9095,-0.97793 -9.3907,-1.00931 -10.2701,-0.12989 -1.3173,1.31725 -1.4378,1.2566 7.4908,3.76892 5.3156,1.49567 7.8812,3.59241 6.3138,5.15985 -0.6008,0.60077 -5.8673,-0.33606 -18.1297,-3.22499 -3.3,-0.77746 -7.8,-1.48368 -10,-1.56937 -7.3341,-0.2857 -29.1563,-3.79966 -33.6074,-5.41171 -2.416,-0.87497 -7.7676,-2.72259 -11.8926,-4.10582 -4.125,-1.38323 -8.4,-3.09105 -9.5,-3.79517 -1.1,-0.70411 -3.3355,-1.60955 -4.9677,-2.01208 -1.6323,-0.40253 -5.3786,-1.8724 -8.3252,-3.26637 -5.2696,-2.49294 -5.551,-2.51727 -17.1568,-1.48395 -11.8387,1.05405 -23.0831,0.28902 -27.0637,-1.84131 -2.7525,-1.47309 -3.261,-1.23318 -2.6647,1.25713 0.2963,1.2375 0.01,5.175 -0.646,8.75 -1.0103,5.54265 -1.5155,6.54707 -3.4304,6.81955 -2.5916,0.36879 -2.9218,-1.58109 -1.1356,-6.70503 0.9735,-2.79256 0.7974,-3.65616 -1.4325,-7.02582 -1.649,-2.49179 -3.5326,-4.02836 -5.36,-4.37251 -1.5496,-0.29183 -5.4885,-1.28321 -8.7531,-2.20305 l -5.9356,-1.67245 -1.7921,2.32966 c -0.9857,1.28131 -1.8022,3.58127 -1.8144,5.11103 -0.021,2.61138 -2.3505,4.72375 -3.7101,3.36415 -0.3308,-0.33086 -0.8207,-2.88302 -1.0887,-5.67148 -0.3817,-3.97291 -0.8356,-5.00281 -2.0977,-4.75976 -1.88,0.36206 -4.036,4.4581 -4.789,9.09803 -1.4716,9.06863 6.9888,20.5227 19.8513,26.87527 4.1065,2.02817 8.7817,3.9899 10.3892,4.35939 1.6075,0.36949 6.6595,1.80817 11.2266,3.19707 7.9303,2.41164 8.7054,2.4704 17.2264,1.30595 9.8697,-1.34876 14.4992,-0.79767 15.9417,1.89767 0.5677,1.06069 2.6666,2.05873 5.1723,2.4594 2.3192,0.37087 7.6231,2.15994 11.7863,3.97572 4.1632,1.81579 9.7389,3.837 12.3905,4.49159 5.9885,1.47841 10.9339,4.53258 21.179,13.07975 10.0725,8.40326 10.9639,8.75436 12.5434,4.94093 0.6767,-1.63374 1.6875,-2.81808 2.2461,-2.63187 0.5587,0.18621 1.9767,3.24067 3.1513,6.78769 1.9472,5.87995 2.5294,6.64249 6.5974,8.64009 2.454,1.20504 4.7552,2.21754 5.1139,2.25 0.3587,0.0325 1.1717,-1.40347 1.8067,-3.19097 l 1.1544,-3.25 1.9115,2.32136 c 1.0512,1.27674 2.1975,3.84649 2.5472,5.71055 0.4141,2.207 1.7972,4.27499 3.9652,5.92864 4.4467,3.39163 5.6668,3.23095 5.3957,-0.71055 -0.3833,-5.57221 -0.034,-6.91657 1.7082,-6.57332 0.9352,0.18425 2.1654,2.10115 2.8601,4.4565 0.6704,2.27325 2.4699,5.77342 3.999,7.77815 2.5336,3.32172 2.9299,3.50944 4.4688,2.11682 2.7828,-2.51845 3.9354,-1.80154 6.5278,4.06046 2.8847,6.52275 5.1658,6.87349 4.7041,0.7233 -0.1974,-2.62874 0.2132,-4.41063 1.2061,-5.23472 2.0853,-1.73057 3.5931,-0.50323 3.5931,2.92467 0,1.5861 0.9444,4.48454 2.0987,6.44098 2.0164,3.41751 3.9013,4.65298 3.9013,2.55716 0,-0.55 0.9036,-1 2.0081,-1 1.4093,0 2.4853,1.19263 3.6086,4 1.6732,4.18194 3.0482,5.03668 4.0217,2.5 0.8847,-2.30552 4.1314,-1.78087 5.9257,0.95756 1.2841,1.95972 2.1848,2.34267 4.4462,1.89039 2.181,-0.43622 3.14,-0.0801 4.1533,1.54244 1.4674,2.34964 4.7629,2.77199 6.7074,0.85961 1.0195,-1.00271 1.6348,-0.80488 3.1103,1 2.2597,2.76434 4.0187,2.89959 4.0187,0.30902 0,-3.28865 1.722,-3.229 4.3675,0.15128 2.4451,3.12432 2.642,3.18803 6.047,1.95677 2.8641,-1.03568 3.9448,-1.03065 5.8025,0.027 1.4973,0.85241 6.455,1.33155 14.405,1.39218 10.7349,0.0819 12.5391,0.35017 15.7663,2.34468 3.0538,1.88734 4.4514,2.14121 8.6268,1.56695 2.7405,-0.37691 5.2347,-1.09313 5.5428,-1.5916 0.3081,-0.49848 3.1211,-0.92227 6.2511,-0.94176 3.13,-0.0195 6.816,-0.67854 8.191,-1.46456 1.375,-0.78602 4.6147,-1.44508 7.1993,-1.46456 4.0044,-0.0302 5.1344,0.43012 7.6418,3.11305 3.2481,3.47548 6.3855,3.43395 5.4685,-0.0724 -0.2943,-1.12543 -0.2449,-2.80228 0.1097,-3.72633 0.555,-1.44635 1.0924,-1.25764 3.8627,1.35629 3.6079,3.40432 10.0683,4.42931 11.0927,1.75994 0.8485,-2.21137 2.8089,-1.7686 5.1459,1.16226 1.9064,2.39084 2.2992,2.50377 4.3484,1.25 1.9518,-1.19411 2.4117,-1.16657 3.4419,0.20608 1.6822,2.24143 6.2083,3.19988 7.539,1.59647 0.5933,-0.71491 0.9823,-2.60543 0.8644,-4.20114 -0.3241,-4.38767 2.9101,-4.59725 4.7242,-0.30612 l 1.4062,3.32643 1.0806,-2.82276 c 1.3918,-3.63593 4.4462,-3.27291 4.8911,0.58131 0.2916,2.52653 1.0119,3.14225 2.9144,2.49145 0.402,-0.1375 0.7395,-0.91764 0.75,-1.73364 0.034,-2.67499 3.3935,-2.36541 4.0816,0.37618 0.3486,1.38898 1.1756,2.97505 1.8377,3.52459 1.7203,1.42766 5.4267,0.20404 6.1342,-2.0251 0.6037,-1.90214 3.4657,-2.69777 3.4657,-0.96346 0,1.39778 2.9563,4.07143 4.5019,4.07143 0.7474,0 1.5028,-1.0079 1.6785,-2.23978 0.4263,-2.98803 3.4516,-3.49507 4.3305,-0.7258 0.5533,1.74338 5.7167,4.96558 7.957,4.96558 0.2926,0 0.5321,-1.54844 0.5321,-3.44098 0,-1.89254 0.4833,-3.73969 1.074,-4.10477 1.3362,-0.82583 5.829,3.24487 7.0382,6.37703 1.6078,4.16427 3.3878,1.88723 3.3878,-4.33366 z M 1031.8832,93.97768 c -1.5309,-1.53096 -2.1691,-4.42857 -0.9753,-4.42857 2.8843,0 11.4039,3.41486 11.4039,4.57096 0,2.04367 -8.3566,1.92957 -10.4286,-0.14239 z m 57.367,-5.67857 c -1.4282,-3.15421 1.0702,-10.21064 3.6666,-10.35632 1.0422,-0.0585 2.6609,-0.43586 3.5971,-0.83862 2.5456,-1.0952 3.8096,0.18781 3.6982,3.75396 -0.1873,5.99757 -1.2892,8.19098 -4.1146,8.19098 -1.4344,0 -2.948,0.3375 -3.3635,0.75 -1.3133,1.30365 -2.4326,0.8217 -3.4838,-1.5 z m 109.0616,102.40499 c 0,-0.46476 -0.9106,-1.66913 -2.0236,-2.67637 -2.5416,-2.30009 -5.1438,-0.59011 -3.0116,1.979 1.35,1.62665 5.0352,2.13705 5.0352,0.69737 z m -204.55702,-4.09198 c 1.8336,-2.02614 1.3849,-4.06301 -0.895,-4.06301 -1.3785,0 -2.548,2.10298 -2.548,4.58179 0,1.97553 1.3728,1.76867 3.443,-0.51878 z m 53.57352,-6.53637 c -2.2766,-3.68353 -4.2601,-4.18282 -4.8353,-1.21714 -0.4444,2.29123 4.6445,7.26483 6.0229,5.88643 0.7327,-0.73271 0.3742,-2.14224 -1.1876,-4.66929 z m 132.9835,1.00854 c 0,-0.80565 -0.9216,-1.95805 -2.0481,-2.5609 -1.3904,-0.74414 -1.8561,-1.70086 -1.4502,-2.97955 0.4198,-1.32284 -0.1705,-2.38681 -1.9832,-3.57455 -3.5374,-2.31783 -4.0533,-1.30271 -1.6479,3.24299 1.1166,2.11026 2.2634,4.62433 2.5484,5.58683 0.6254,2.11203 4.581,2.35828 4.581,0.28518 z m -179.4543,-1.60921 c 0.7867,-1.27285 -3.31212,-5.92597 -5.22002,-5.92597 -1.8746,0 -1.6488,1.31951 0.7469,4.36514 2.2331,2.83891 3.426,3.25516 4.47312,1.56083 z m -76.50522,-2.00166 c 1.01635,-1.89908 0.93426,-1.98117 -0.96482,-0.96482 -1.14163,0.61098 -2.07569,1.54504 -2.07569,2.07569 0,1.71665 1.89848,1.02302 3.04051,-1.11087 z m 134.28892,-0.0819 c 0.8365,-1.32846 0.373,-2.22193 -2.3343,-4.5 -4.2595,-3.58417 -6.5942,-3.72653 -6.2191,-0.37923 0.3352,2.99177 4.0923,7.21143 6.0727,6.82045 0.7903,-0.15601 1.9066,-1.02956 2.4807,-1.94122 z m 105.6706,-4.34241 c 0,-1 -1,-1.5 -3,-1.5 -3.5677,0 -3.8439,0.72523 -0.75,1.96884 3.2084,1.28963 3.75,1.22192 3.75,-0.46884 z m -157.382,-0.69098 c 0.4081,-0.66023 0.1484,-1.38687 -0.5826,-1.63054 -0.7252,-0.24175 -2.9969,-1.95581 -5.0482,-3.80902 -5.89902,-5.32933 -6.81102,-4.18724 -1.98092,2.4805 2.98022,4.11408 6.13902,5.34204 7.61172,2.95906 z m 58.346,-2.55902 c -0.05,-2.45352 -4.5101,-7.64859 -5.8532,-6.81847 -1.6419,1.01471 -1.3485,4.6484 0.5442,6.73973 2.1269,2.35026 5.3567,2.39816 5.309,0.0787 z m 90.9639,0 c -0.7243,-0.9625 -2.9764,-3.55 -5.0046,-5.75 -2.0282,-2.2 -4.9128,-6.25 -6.4101,-9 -3.462,-6.35843 -4.4124,-7.5 -6.2441,-7.5 -2.8839,0 -0.1658,6.84955 6.1289,15.44507 4.1042,5.60428 5.3403,6.44163 12.4744,8.45008 0.2049,0.0577 -0.2202,-0.68265 -0.9445,-1.64515 z m -145.123,-5.47551 c 0.1803,-0.93639 -1.8395,-4.31762 -4.4885,-7.51384 -2.649,-3.19622 -5.5226,-6.88922 -6.3857,-8.20667 -0.92982,-1.41912 -2.05052,-2.09796 -2.75002,-1.66565 -2.0871,1.28987 -1.2657,5.6254 1.9764,10.43149 5.47422,8.11527 10.81072,11.30155 11.64782,6.95467 z m 60.9721,-1.02449 c 1.1586,-1.41737 -1.3132,-8.75 -2.9497,-8.75 -1.5647,0 -4.8273,1.99954 -4.8273,2.95846 0,1.18329 4.9638,7.04154 5.9664,7.04154 0.4338,0 1.2485,-0.5625 1.8106,-1.25 z m 11.6292,-0.59831 c 0.7898,-1.27792 -5.7175,-14.14248 -7.1562,-14.14741 -1.8084,-0.006 -1.5342,4.67172 0.4889,8.34143 3.2725,5.93597 5.4273,7.81241 6.6673,5.80598 z m -62.9302,-1.1128 c 0.3267,-0.52862 -0.8138,-2.21541 -2.5343,-3.74844 -1.7206,-1.53302 -6.2794,-8.07559 -10.1308,-14.53904 -3.8513,-6.46344 -7.3677,-11.97748 -7.8142,-12.25342 -0.44642,-0.27594 -1.59342,-2.98676 -2.54872,-6.02406 -1.6619,-5.28353 -1.8173,-5.44973 -3.5925,-3.84315 -3.1016,2.80692 -2.3513,6.78419 1.9887,10.5413 2.3759,2.05678 4.08172,4.55205 4.46602,6.53277 1.0189,5.25201 6.3869,13.71855 12.1591,19.17767 5.453,5.1572 6.9181,5.91775 8.0067,4.15637 z m 73.524,-0.40403 c 0,-0.75083 -0.8294,-2.43833 -1.8431,-3.75 -1.0137,-1.31167 -2.9222,-5.42236 -4.2411,-9.13486 -1.3189,-3.7125 -2.6844,-6.75 -3.0344,-6.75 -0.3501,0 -1.221,0.70427 -1.9354,1.56504 -1.0871,1.30991 -0.8561,2.46786 1.4174,7.10331 2.8058,5.72093 7.5696,12.33157 8.8866,12.33162 0.4125,2e-5 0.75,-0.61428 0.75,-1.36511 z m 18.8501,-0.15751 c 0.1926,-0.18936 0.029,-0.86344 -0.3628,-1.49795 -0.5135,-0.83075 -1.0173,-0.84938 -1.8002,-0.0665 -3.0056,3.00559 -7.0318,0.59757 -9.8864,-5.91287 -5.5943,-12.75882 -8.2091,-18 -8.9801,-18 -4.1011,0 0.9488,12.63104 8.4396,21.10967 4.9356,5.58645 5.443,5.89539 8.7398,5.32136 1.925,-0.33517 3.6575,-0.76433 3.8501,-0.95368 z m 44.8048,-0.93422 c -0.3257,-0.84872 -1.351,-1.54313 -2.2785,-1.54313 -1.5389,0 -1.5276,0.17542 0.1291,2.00613 1.9897,2.19852 3.0806,1.96353 2.1494,-0.463 z m -130.1549,-4.54313 c 0.3399,-0.55 0.168,-1 -0.382,-1 -0.55,0 -1.2781,0.45 -1.618,1 -0.3399,0.55 -0.168,1 0.382,1 0.55,0 1.2781,-0.45 1.618,-1 z m 93.9562,-8.75 c -3.1833,-5.53099 -5.3897,-8.25 -6.6945,-8.25 -1.3669,0 -0.7023,1.32653 3.7383,7.46231 4.9055,6.7782 6.6754,7.24979 2.9562,0.78769 z m -100.4562,2.78518 c 0,-0.89403 -3.1341,-3.03518 -4.4427,-3.03518 -0.3159,0 -0.012,0.9 0.6748,2 1.2879,2.06231 3.7679,2.74365 3.7679,1.03518 z m 0.3985,-11.78518 c -7.4164,-10.11873 -7.6169,-10.36499 -8.0693,-9.91258 -0.8857,0.88571 5.2495,11.41177 8.4005,14.41258 5.7644,5.48961 5.6275,3.62996 -0.3312,-4.5 z m 11.9736,1.79225 c -2.1296,-2.04865 -5.4471,-6.26772 -7.3721,-9.3757 -3.2493,-5.24609 -5,-6.92007 -5,-4.78086 0,2.56495 5.687,10.49854 12.9261,18.03254 1.7334,1.80396 2.5535,2.14287 2.8722,1.1869 0.2453,-0.73592 -1.2965,-3.01422 -3.4262,-5.06288 z m 9.8231,-11.29225 c -3.4376,-3.4375 -6.9128,-7.4875 -7.7227,-9 -0.8099,-1.5125 -2.1447,-3.9875 -2.9664,-5.5 -0.8216,-1.5125 -1.4966,-3.24276 -1.5,-3.84501 -0.01,-1.47014 -3.8574,-4.88701 -4.6323,-4.1121 -1.7653,1.76526 2.197,8.22368 12.6526,20.62344 3.7367,4.43146 7.9993,7.87872 9.9463,8.04363 0.2599,0.022 -2.34,-2.77246 -5.7775,-6.20996 z m -32.9419,-9 c 0.4832,-1.43834 -2.0446,-11.86566 -3.1572,-13.02363 -0.4089,-0.42549 -1.5431,0.11011 -2.5206,1.19023 -1.7101,1.88961 -1.6779,2.17406 0.8529,7.52363 2.5971,5.48995 4.0057,6.7481 4.8249,4.30977 z m -9.9079,-2.29226 c -0.655,-1.70679 -2.49902,-1.49685 -3.11622,0.35476 -0.2199,0.65946 0.5166,1.1875 1.6561,1.1875 1.43812,0 1.87492,-0.46137 1.46012,-1.54226 z m 14.7377,-8.16943 c -0.6454,-2.63357 -1.4095,-5.57875 -1.6978,-6.54484 -0.3512,-1.17662 0.188,-2.02 1.6331,-2.55459 1.8107,-0.66983 1.93,-0.98681 0.7421,-1.97263 -1.1342,-0.94132 -1.8423,-0.59685 -3.5661,1.73462 -2.0559,2.78076 -2.0803,3.07784 -0.5538,6.72916 0.8784,2.10098 2.0062,4.89488 2.5062,6.20866 1.5268,4.01149 2.1832,1.48717 0.9363,-3.60038 z m -13.4695,-31.00626 c -0.881,-0.87907 -5.61362,4.18305 -5.61362,6.00448 0,0.64626 1.4394,-0.26441 3.1987,-2.02371 1.75932,-1.75929 2.84602,-3.55064 2.41492,-3.98077 z m 154.1434,-0.85838 c -0.9842,-0.98418 -2.757,0.52669 -2.757,2.34963 0,1.52648 0.1315,1.52374 1.6905,-0.0352 0.9297,-0.92977 1.4097,-1.97126 1.0665,-2.31443 z m -151.9501,-3.95013 c -0.3079,-0.30789 -0.8671,0.24711 -1.2426,1.23333 -0.5427,1.4252 -0.4278,1.54006 0.5598,0.5598 0.6834,-0.67834 0.9906,-1.48524 0.6828,-1.79313 z m 143.1089,-2.53127 c 8.1182,-7.3529 21.4738,-18.66844 30.0449,-25.45575 4.1034,-3.2494 8.1844,-6.60066 9.0689,-7.44726 0.8844,-0.84659 3.1521,-2.63645 5.0392,-3.97745 7.212,-5.12489 13.8427,-11.4403 14.1309,-13.45916 0.2136,-1.49548 1.1503,-2.19941 3.2438,-2.43774 2.9347,-0.33409 11.5565,-5.5747 11.5565,-7.02439 0,-1.0322401 2.737,-3.8516101 8.3349,-8.5856601 2.5658,-2.16983 4.6651,-4.33736 4.6651,-4.81673 0,-1.77573 -5.2932,-7.7380899 -6.8687,-7.7369999 -0.8972,6.2e-4 -4.3313,2.50232 -7.6313,5.5593299 -3.3,3.057 -7.1081,6.319 -8.4625,7.24887 -1.3543,0.92987 -5.6293,4.67789 -9.5,8.3289501 -9.3342,8.80465 -16.1039,13.86172 -18.5563,13.86172 -1.7882,0 -5.2793,2.75241 -14.1284,11.13891 -1.5315,1.4514 -4.7124,4.13561 -7.0686,5.96492 -10.4373,8.10297 -32.7842,28.1407 -32.7842,29.39649 0,1.33177 7.3886,4.1767 11.4158,4.39556 1.0537,0.0573 4.4287,-2.17186 7.5,-4.95361 z M 1127.847,63.9341 c 3.2809,-2.14972 3.1255,-3.20583 -1.2028,-8.17464 -3.7479,-4.30251 -7.86,-5.60493 -8.926,-2.82708 -1.0271,2.6767 4.3174,12.61673 6.7838,12.61673 0.4841,0 1.9893,-0.72675 3.345,-1.61501 z m -13.5352,-1.42947 c 0,-0.57447 -0.7379,-4.06197 -1.6397,-7.75 -1.4628,-5.98214 -4.4545,-11.20552 -6.4181,-11.20552 -2.8454,0 -0.2714,13.95625 3.2692,17.72504 2.2286,2.37226 4.7886,3.03007 4.7886,1.23048 z m -69,-2.3965 c 0,-3.0481 -1.3877,-4.00177 -2.9986,-2.06074 -1.4994,1.80672 -0.6211,4.50172 1.4672,4.50172 0.9569,0 1.5314,-0.91565 1.5314,-2.44098 z m 27.4438,1.53196 c 0.9094,-1.47152 -2.0134,-11.41689 -3.6607,-12.45596 -4.6477,-2.93171 -6.9922,6.61673 -2.7442,11.17642 2.0882,2.24138 5.4013,2.90327 6.4049,1.27954 z m 19.5562,-0.68325 c 0,-0.87575 -0.9,-2.73644 -2,-4.13486 -1.5198,-1.93207 -2,-4.05678 -2,-8.84871 0,-6.30301 -1.1817,-8.64245 -3.297,-6.52715 -1.4847,1.48463 1.6449,16.725 3.9597,19.28276 2.0306,2.24379 3.3373,2.33305 3.3373,0.22796 z m 11,0.55709 c 0,-0.56935 -0.7077,-2.11525 -1.5726,-3.43533 -0.865,-1.32007 -1.4721,-3.66674 -1.3492,-5.21481 0.1228,-1.54808 0.1555,-5.88348 0.073,-9.63423 -0.1425,-6.44171 -0.2741,-6.80185 -2.3758,-6.5 -3.7332,0.53616 -4.8598,4.30278 -4.1229,13.78475 0.5341,6.87306 1.0519,8.79464 2.7528,10.21673 2.2958,1.91934 6.5951,2.4297 6.5951,0.78289 z m -21.461,-2.21482 c -0.3818,-1.2375 -1.0346,-3.85968 -1.4507,-5.82706 -1.0213,-4.82925 -2.0401,-6.37114 -3.3465,-5.06479 -1.0993,1.09933 0.6947,9.51262 2.5358,11.89185 1.5968,2.06358 3.0134,1.43718 2.2614,-1 z m -30.1551,-3 c -0.7598,-5.04816 -2.0662,-6.88204 -3.3839,-4.75 -0.5625,0.91008 -0.5464,1.85363 0.042,2.44164 0.5271,0.5271 0.9584,1.67836 0.9584,2.55836 0,1.37837 1.7773,4 2.7118,4 0.1715,0 0.024,-1.9125 -0.3279,-4.25 z m 8.9632,3.49738 c 0.7075,-1.1448 -2.0357,-8.434 -3.5309,-9.3821 -2.2187,-1.40691 -2.8162,-0.98259 -2.8162,1.99986 0,4.24538 4.8206,9.85217 6.3471,7.38224 z m -22.1288,-7.88438 c 1.8049,-2.55035 5.4042,-6.93785 7.9985,-9.75 4.8779,-5.2877 18.1583,-21.95972 23.3335,-29.29252 3.2171,-4.5584201 10.7198,-13.8154101 22.5482,-27.82048 4.1806,-4.95 8.7991,-10.8 10.2632,-13 3.8636,-5.80561 22.2852,-28.96211 30.2299,-38 8.9256,-10.15381 16.4084,-19.31653 16.4084,-20.09232 0,-0.43903 -1.2092,-2.06037 -2.6871,-3.60296 -3.2662,-3.40921 -6.8028,-3.64209 -8.4241,-0.55472 -0.6498,1.2375 -3.1407,4.84253 -5.5352,8.01117 -2.3945,3.16864 -4.3536,6.05873 -4.3536,6.42242 0,0.36369 -2.145,3.17116 -4.7667,6.23883 -2.6217,3.06767 -6.0196,7.26508 -7.5509,9.32758 -1.5313,2.0625 -3.6213,3.75 -4.6444,3.75 -2.0065,0 -3.1327,1.25062 -13.038,14.4773 -3.575,4.77376 -8.5295,11.23177 -11.0099,14.35113 -2.4804,3.11936 -5.75,7.47157 -7.2656,9.67157 -3.4754,5.04474 -9.0579,12.1064399 -12.6484,15.9999999 -1.5216,1.65 -3.4986,4.41579 -4.3933,6.1462 -0.8948,1.73041 -2.6889,3.98041 -3.987,5 -1.2981,1.0195901 -4.9339,5.6788001 -8.0796,10.3538001 -11.9079,17.69677 -21.7006,30 -23.8784,30 -0.4932,0 -0.6002,-1.35 -0.2378,-3 0.3624,-1.65 0.4365,-3 0.1646,-3 -0.7284,0 -7.968,10.03366 -7.5343,10.44202 0.4777,0.44976 10.6981,2.28443 13.588,2.43918 1.57,0.0841 3.1774,-1.23636 5.5,-4.5182 z m 19.1058,-7.76523 c 0.6251,-1.62905 -0.2148,-2.78338 -1.4636,-2.01157 -1.1359,0.70205 -1.1101,3.4138 0.033,3.4138 0.4912,0 1.1352,-0.63101 1.4311,-1.40223 z m 182.7712,-53.41965 c -1.3643,-2.54923 -4.8349,-5.43158 -6.0518,-5.02597 -0.5897,0.19657 0.3205,2.04693 2.0226,4.11191 3.0433,3.69205 5.8576,4.3304999 4.0292,0.91406 z m 6.9047,-5.59656 c 0,-1.2531 -5.7139,-5.58156 -7.368,-5.58156 -1.3602,0 -0.5113,1.848 2.0043,4.36364 2.8834,2.88331 5.3637,3.44652 5.3637,1.21792 z m 15,-10.49851 c 3.6261,-3.15193 4.2572,-4.16122 3.25,-5.19729 -1.6909,-1.7393 -1.5718,-4.40549 0.3809,-8.52039 0.897,-1.89029 1.4018,-3.66595 1.1219,-3.94592 -0.28,-0.27997 -3.8755,2.16613 -7.99,5.43577 l -7.4809,5.94481 1.6091,5.08661 c 0.989,3.12667 2.187,5.09072 3.109,5.09728 0.825,0.006 3.525,-1.74952 6,-3.90087 z m 0.4674,-21.22424 c 4.6787,-4.45048 8.2625,-8.48677 7.9642,-8.96952 -0.2984,-0.48275 -5.201,3.27995 -10.8946,8.36156 -5.6937,5.08161 -10.1414,9.58023 -9.8839,9.99692 0.8141,1.31726 4.0574,-1.05907 12.8143,-9.38896 z m 18.2181,6.96688 c 1.273,-1.19588 2.3145,-2.70561 2.3145,-3.35497 0,-1.45386 -5.9186,-6.47072 -7.6338,-6.47072 -2.1315,0 -2.6376,2.04263 -0.9642,3.89175 0.8789,0.97115 1.598,2.48099 1.598,3.3552 0,2.0119 1.0338,4.75305 1.7925,4.75305 0.3182,0 1.6201,-0.97844 2.893,-2.17431 z m 16.2201,-13.54948 c 5.442,-4.12392 10.1815,-8.57115 11.2382,-10.54517 1.1068,-2.06782 -1.7461,-7.73104 -3.8946,-7.73104 -3.3113,0 -16.2492,10.51502 -16.2492,13.2062 0,2.58692 2.7934,7.7938 4.1813,7.7938 0.6214,0 2.7474,-1.22571 4.7243,-2.72379 z m -1.9056,-20.33867 c 0,-0.45073 -0.4528,-1.09937 -1.0063,-1.44143 -1.1515,-0.71165 -11.0365,9.60302 -10.3228,10.7715 0.5239,0.85762 11.3291,-8.04105 11.3291,-9.33007 z m -161.9371,-18.05519 c 1.3731,-2.56556 0.7375,-2.36328 -2.1151,0.67317 -1.7892,1.90455 -1.9539,2.38404 -0.6465,1.88235 0.9648,-0.37024 2.2076,-1.52023 2.7616,-2.55552 z m 20.4371,-4.43607 c -1.1,-0.78049 -3.0527,-2.32693 -4.3393,-3.43653 -1.2866,-1.10959 -2.8319,-1.71295 -3.4341,-1.3408 -0.6665,0.41195 0.6071,2.18699 3.2557,4.53742 3.1521,2.79726 4.649,3.55751 5.4341,2.75988 0.7809,-0.79341 0.525,-1.49725 -0.9164,-2.51997 z m 13.2502,-10.96063 c 3.4374,-4.1329 6.2498,-7.99745 6.2498,-8.5879 0,-0.70119 -1.4091,-0.83549 -4.0625,-0.3872 -3.1038,0.5244 -4.5,0.29037 -5.9168,-0.9918 -1.4723,-1.33244 -2.2835,-1.44848 -3.9375,-0.56327 -2.8209,1.50967 -2.6285,3.04452 0.3816,3.04452 3.4612,0 5.0268,3.21471 3.2968,6.76911 -1.1482,2.35895 -1.9035,2.71914 -5.5454,2.64458 -2.3189,-0.0475 -4.2162,0.25737 -4.2162,0.67742 0,1.05327 5.0151,4.90889 6.3851,4.90889 0.6135,0 3.9278,-3.38146 7.3651,-7.51435 z m -16.1173,-7.39616 c 0.623,-1.23892 2.4663,-3.67838 4.0962,-5.42103 1.6298,-1.74265 4.2643,-4.96846 5.8545,-7.16846 1.5901,-2.2 4.8093,-5.98664 7.1538,-8.41476 3.9378,-4.07839 5.4045,-7.08524 3.456,-7.08524 -1.7672,0 -24.1934,27.49912 -24.1934,29.66609 0,2.10714 2.2773,1.11885 3.6329,-1.5766 z m 37.1866,-17.39072 c 0.2118,-1.09963 -0.6633,-2.06777 -2.4968,-2.76247 -1.5525,-0.58824 -3.8308,-2.01381 -5.0628,-3.16793 -1.8986,-1.77844 -2.6228,-1.92404 -4.75,-0.95483 -3.4482,1.57109 -3.2029,4.09786 0.469,4.83225 2.2285,0.4457 3.2849,1.44183 4.1934,3.95413 l 1.2144,3.35835 3.0534,-1.78328 c 1.6793,-0.9808 3.2001,-2.5451 3.3794,-3.47622 z m -10.2236,-15.44877 c 2.0377,-3.06913 2.6336,-5.25 1.4343,-5.25 -1.2174,0 -6.0276,6.66929 -5.3203,7.37658 1.1415,1.14153 2.044,0.64768 3.886,-2.12658 z m 24.7768,-3.59178 4.9891,-5.7139 -4.3891,-4.47216 c -2.414,-2.45969 -4.9277,-4.47216 -5.5859,-4.47216 -0.6582,0 -2.3179,1.91305 -3.6882,4.25122 -1.3702,2.33817 -3.438,5.10791 -4.595,6.15499 -3.1517,2.85229 -2.6658,5.46093 1.328,7.12967 1.8874,0.7886 3.7286,1.91439 4.0916,2.50176 1.0587,1.713 2.5478,0.69249 7.8495,-5.37942 z m -14.935,-8.28041 c 3.2478,-4.25355 3.7721,-6.37781 1.5741,-6.37781 -0.9988,0 -7.0118,8.61852 -7.0118,10.05013 0,2.11734 2.0997,0.69931 5.4377,-3.67232 z m 361.3381,382.73447 c -5.1623,-0.47005 -7.2529,-1.14521 -9,-2.9065 l -2.2758,-2.29423 2.5,-2.00095 c 4.4472,-3.55944 7.1686,-4.03144 26.6975,-4.63033 19.7794,-0.60658 22.3025,-0.22568 22.3025,3.36693 0,2.16524 -7.1214,4.31578 -24.5,7.39855 -2.75,0.48783 -5.9,1.06512 -7,1.28288 -1.1,0.21775 -5.0259,0.1204 -8.7242,-0.21635 z m -31.5258,-23.2359 c -2.9964,-3.05967 -0.044,-7.2872 7.25,-10.38161 7.011,-2.97429 49.9319,-7.52061 55.6145,-5.89087 4.3553,1.2491 5.0515,4.10334 1.2019,4.92796 -1.549,0.33182 -8.4414,1.90573 -15.3164,3.49757 -29.4915,6.82849 -34.8402,7.93938 -41,8.51545 -4.6385,0.4338 -6.858,0.24235 -7.75,-0.6685 z m -8.25,-30.76705 c -3.0696,-0.84882 -3.7462,-4.14119 -1.294,-6.29658 2.3829,-2.09453 16.337,-6.81275 20.1486,-6.81275 1.6603,0 6.7597,-0.89685 11.332,-1.99299 12.7259,-3.05084 24.6488,-2.34775 23.2224,1.36942 -0.6422,1.67366 -3.8938,3.08524 -10.909,4.73581 -2.75,0.64703 -5.45,1.4928 -6,1.8795 -1.6987,1.19432 -11.2476,4.00695 -13.6879,4.0318 -1.2717,0.0129 -5.6567,0.91294 -9.7445,2 -7.8535,2.08844 -9.0747,2.18992 -13.0676,1.08579 z M 915.55685,151.39419 c -1.87077,-1.87077 -1.53405,-3.5637 1.62399,-8.1649 1.57798,-2.2991 4.7159,-7.85865 6.97314,-12.35456 4.26137,-8.48768 5.69292,-10.19049 7.25442,-8.62899 1.42704,1.42704 -1.57166,10.04544 -5.29745,15.22512 -2.63089,3.65754 -3.30732,5.58378 -3.36353,9.57825 -0.0673,4.77967 -0.1998,5.013 -3.00792,5.29508 -1.61567,0.16229 -3.49786,-0.26521 -4.18265,-0.95 z m 571.32635,-2.41651 c -1.9411,-1.94108 -1.9494,-2.44392 -0.085,-5.10635 1.1334,-1.61807 2.976,-2.28139 7.75,-2.78982 3.4447,-0.36686 8.9632,-1.51976 12.2632,-2.56199 3.3,-1.04224 12.8163,-3.26196 21.1473,-4.9327 20.0735,-4.0256 27.3527,-4.02918 27.3527,-0.0134 0,2.32622 -5.227,4.29094 -24,9.02125 -2.475,0.62363 -6.975,1.80106 -10,2.6165 -3.025,0.81544 -7.75,1.88345 -10.5,2.37334 -2.75,0.4899 -6.8,1.34662 -9,1.90382 -6.1029,1.54569 -13.112,1.30595 -14.9286,-0.51062 z m -560.56715,-4.17857 c 0.002,-0.9625 1.35043,-3.775 2.99572,-6.25 1.64529,-2.475 2.99336,-5.4225 2.99572,-6.55 0.004,-2.06503 1.72159,-4.45 3.20429,-4.45 1.6463,0 0.6948,4.11991 -2.64312,11.4446 -2.14076,4.6976 -4.03199,7.5554 -5,7.5554 -0.85629,0 -1.55496,-0.7875 -1.55261,-1.75 z m 547.74575,-33.3301 c -4.3954,-2.56008 -0.6571,-7.22196 6.75,-8.41764 2.2,-0.35514 6.925,-1.29559 10.5,-2.0899 3.575,-0.79432 9.875,-2.12338 14,-2.95348 4.125,-0.83011 11.55,-2.39203 16.5,-3.47094 11.0453,-2.40747 24.6912,-2.6674 26.4862,-0.50451 1.0239,1.23372 0.75,1.66664 -1.6275,2.57187 -1.5723,0.59864 -5.1087,1.50528 -7.8587,2.01475 -2.75,0.50946 -8.825,2.02061 -13.5,3.35811 -4.675,1.33749 -10.975,2.89192 -14,3.45429 -10.6257,1.97539 -16.558,3.33459 -22.771,5.21729 -6.9227,2.09774 -11.8102,2.37459 -14.479,0.82016 z m -5.5732,-38.57568 c -2.7895,-2.25875 -2.1418,-4.71506 1.645,-6.23859 1.473,-0.59261 6.9766,-1.75661 12.2302,-2.58667 5.2537,-0.83006 11.7787,-2.16062 14.5,-2.9568 9.0367,-2.64383 27.2105,-5.68303 32.1139,-5.37039 4.1028,0.2616 4.8814,0.64071 5.1468,2.50592 0.5357,3.76492 -7.4418,6.58853 -32.8127,11.61407 -4.125,0.81709 -10.2,2.02796 -13.5,2.69082 -11.4427,2.29847 -16.7899,2.39301 -19.3232,0.34164 z M 1005.3844,43.91425 c -3.3275,-4.2302 -2.7302,-5.22796 3.0056,-5.02066 3.671,0.13268 5.3505,0.67016 6.0609,1.93971 3.0681,5.48223 -5.0167,8.22954 -9.0665,3.08095 z m 161.4274,-44.0927901 c -1.1,-0.27261 -3.958,-1.81087 -6.351,-3.41835 -2.3931,-1.60748 -6.4431,-4.0011599 -9,-5.3192899 -2.557,-1.31813 -7.7811,-4.6737 -11.6093,-7.45682 -3.8281,-2.78312 -10.0096,-6.52417 -13.7367,-8.31344 -6.5377,-3.13853 -8.4349,-4.93299 -7.2472,-6.85469 1.5628,-2.52875 12.5691,0.0711 16.9305,3.9993 2.9607,2.66653 14.1637,8.96822 17.3005,9.73157 1.4923,0.36313 4.0847,1.83004 5.7609,3.2598 1.6762,1.42976 5.3599,4.15737 8.186,6.06135 4.871,3.2817299 7.8462,7.1249199 6.5327,8.4384499 -0.6746,0.67465 -3.7637,0.61627 -6.7664,-0.12788 z"
       id="path4309"
       inkscape:connector-curvature="0" />
  </g>
</svg>
