{
  "accessors": [
    {
      "bufferView": 1,
      "componentType": 5126,
      "count": 1178,
      "max": [
        5.936279773712158,
        1.2589399814605713,
        2.316809892654419
      ],
      "min": [
        -1.3272900581359863,
        -1.2589399814605713,
        -1.2890199422836304
      ],
      "type": "VEC3"
    },
    {
      "bufferView": 1,
      "byteOffset": 14136,
      "componentType": 5126,
      "count": 1178,
      "max": [
        0.9885290265083313,
        0.9986672401428223,
        0.9999915361404419
      ],
      "min": [
        -0.9999964237213135,
        -0.9986751079559326,
        -0.9996570348739624
      ],
      "type": "VEC3"
    },
    {
      "bufferView": 0,
      "componentType": 5125,
      "count": 1458,
      "type": "SCALAR"
    }
  ],
  "asset": {
    "extras": {
      "author": "Jiří Kuba (https://sketchfab.com/kuba.jirka)",
      "license": "CC-BY-4.0 (http://creativecommons.org/licenses/by/4.0/)",
      "source": "https://sketchfab.com/3d-models/lowpoly-cloud-2-e5bda7f23b3c47d38d2bc0e4a535d303",
      "title": "Lowpoly cloud 2"
    },
    "generator": "Sketchfab-12.68.0",
    "version": "2.0"
  },
  "bufferViews": [
    {
      "buffer": 0,
      "byteLength": 5832,
      "name": "floatBufferViews",
      "target": 34963
    },
    {
      "buffer": 0,
      "byteLength": 28272,
      "byteOffset": 5832,
      "byteStride": 12,
      "name": "floatBufferViews",
      "target": 34962
    }
  ],
  "buffers": [
    {
      "byteLength": 34104,
      "uri": "scene.bin"
    }
  ],
  "materials": [
    {
      "doubleSided": true,
      "name": "CloudMaterial",
      "pbrMetallicRoughness": {
        "metallicFactor": 0.0,
        "roughnessFactor": 0.6
      }
    }
  ],
  "meshes": [
    {
      "name": "Cloud_0",
      "primitives": [
        {
          "attributes": {
            "NORMAL": 1,
            "POSITION": 0
          },
          "indices": 2,
          "material": 0,
          "mode": 4
        }
      ]
    }
  ],
  "nodes": [
    {
      "children": [
        1
      ],
      "matrix": [
        1.0,
        0.0,
        0.0,
        0.0,
        0.0,
        2.220446049250313e-16,
        -1.0,
        0.0,
        0.0,
        1.0,
        2.220446049250313e-16,
        0.0,
        0.0,
        0.0,
        0.0,
        1.0
      ],
      "name": "Sketchfab_model"
    },
    {
      "children": [
        2
      ],
      "name": "Root"
    },
    {
      "children": [
        3
      ],
      "matrix": [
        1.0,
        0.0,
        0.0,
        0.0,
        0.0,
        1.0863800000000001,
        0.0,
        0.0,
        0.0,
        0.0,
        1.0,
        0.0,
        -1.6533,
        0.0,
        0.0,
        1.0
      ],
      "name": "Cloud"
    },
    {
      "mesh": 0,
      "name": "Cloud_0"
    }
  ],
  "scene": 0,
  "scenes": [
    {
      "name": "Sketchfab_Scene",
      "nodes": [
        0
      ]
    }
  ]
}
