<svg width="205" height="207" viewBox="0 0 205 207" fill="none" xmlns="http://www.w3.org/2000/svg">
<path d="M102.5 181C152.482 181 193 140.482 193 90.5C193 40.5182 152.482 0 102.5 0C52.5182 0 12 40.5182 12 90.5C12 140.482 52.5182 181 102.5 181Z" fill="url(#paint0_radial_673_4501)"/>
<g filter="url(#filter0_d_673_4501)">
<path d="M148.329 40.2916C135.174 33.2785 119.351 29.5718 102.571 29.5718H102.5C85.7205 29.5718 69.897 33.2785 56.7401 40.2941C44.1389 47.0115 34.9946 56.4286 30.9922 66.8068C30.573 67.886 30.4151 69.0491 30.5311 70.201C30.6472 71.3529 31.0341 72.4611 31.6601 73.435C32.4251 74.62 33.4786 75.5912 34.7218 76.2574C35.9651 76.9236 37.3572 77.263 38.7676 77.2436H60.8903C68.5688 77.2436 74.8962 83.2549 74.9956 90.6427C75.0721 96.2359 71.7019 101.232 66.4121 103.374C60.552 105.699 55.4421 109.588 51.639 114.616C48.1879 119.233 46.0404 124.691 45.4212 130.422C44.8442 135.756 45.6693 141.147 47.815 146.064C50.1247 151.326 53.8135 155.782 58.777 159.305C71.5107 168.325 86.628 173.097 102.5 173.097H102.569C118.441 173.097 133.561 168.325 146.287 159.295C151.255 155.772 154.954 151.316 157.249 146.054C159.393 141.137 160.218 135.745 159.642 130.412C159.023 124.681 156.876 119.222 153.425 114.606C149.621 109.578 144.511 105.69 138.652 103.364C133.359 101.222 129.984 96.2257 130.065 90.6325C130.165 83.2396 136.495 77.2334 144.173 77.2334H166.296C167.705 77.253 169.095 76.9145 170.337 76.2497C171.579 75.5848 172.631 74.6154 173.396 73.4324C174.022 72.4587 174.41 71.3507 174.526 70.1988C174.643 69.0468 174.485 67.8837 174.066 66.8042C170.074 56.4286 160.932 47.0115 148.329 40.2916Z" fill="url(#paint1_linear_673_4501)"/>
</g>
<path d="M102.627 108.09C110.723 108.09 117.286 102.954 117.286 96.6183C117.286 90.2826 110.723 85.1465 102.627 85.1465C94.5318 85.1465 87.969 90.2826 87.969 96.6183C87.969 102.954 94.5318 108.09 102.627 108.09Z" fill="#353680"/>
<path d="M135.585 109.324C130.601 102.482 120.98 101.299 114.227 106.38C111.183 108.674 107.071 110.066 102.543 110.066C98.0156 110.066 93.9036 108.664 90.8623 106.38C84.0939 101.299 74.4703 102.482 69.4865 109.324C67.6663 111.822 66.6567 114.568 66.6567 117.454C66.6567 128.971 82.7173 138.309 102.536 138.309C122.354 138.309 138.414 128.971 138.414 117.454C138.414 114.568 137.407 111.822 135.585 109.324Z" fill="#B5B6FF"/>
<path d="M81.6112 117.451C86.3937 121.227 91.839 124.352 97.9063 125.41C103.469 126.381 109.044 125.522 114.189 123.253C117.546 121.775 120.6 119.735 123.46 117.451C124.48 116.641 123.04 115.221 122.033 116.024C116.473 120.459 109.814 123.819 102.564 123.812C95.3136 123.804 88.6294 120.434 83.0413 116.024C82.0216 115.226 80.5915 116.646 81.6112 117.451Z" fill="#0B0B19"/>
<path d="M102.439 126.139C100.901 126.14 99.3654 126.008 97.8501 125.744C92.415 124.796 87.0309 122.175 81.3817 117.711C81.2473 117.615 81.1345 117.491 81.0507 117.348C80.9669 117.206 80.9137 117.047 80.8948 116.883C80.8758 116.718 80.8914 116.552 80.9406 116.394C80.9897 116.236 81.0714 116.09 81.1803 115.965C81.2988 115.807 81.4477 115.673 81.6183 115.573C81.7889 115.473 81.9777 115.408 82.1738 115.382C82.3698 115.355 82.5691 115.368 82.7601 115.42C82.9511 115.471 83.1298 115.561 83.286 115.682C89.7536 120.786 96.2339 123.386 102.564 123.386H102.589C108.927 123.386 115.387 120.793 121.793 115.682C121.948 115.56 122.125 115.47 122.315 115.417C122.505 115.364 122.704 115.35 122.9 115.375C123.095 115.4 123.284 115.464 123.454 115.562C123.625 115.661 123.775 115.793 123.894 115.95C124.004 116.075 124.086 116.221 124.136 116.38C124.187 116.539 124.203 116.706 124.185 116.872C124.167 117.037 124.114 117.197 124.031 117.341C123.947 117.485 123.834 117.611 123.7 117.709C120.445 120.306 117.383 122.221 114.344 123.572C110.597 125.245 106.542 126.119 102.439 126.139ZM81.8507 117.11C87.3955 121.487 92.6699 124.067 97.975 124.992C103.239 125.91 108.794 125.173 114.036 122.861C117.013 121.548 120.019 119.667 123.213 117.11C123.269 117.074 123.316 117.027 123.35 116.971C123.385 116.915 123.407 116.852 123.414 116.787C123.421 116.721 123.413 116.655 123.39 116.593C123.368 116.531 123.332 116.475 123.284 116.429C123.228 116.352 123.156 116.286 123.074 116.237C122.992 116.187 122.901 116.155 122.806 116.141C122.711 116.127 122.614 116.132 122.522 116.155C122.429 116.179 122.341 116.221 122.265 116.279C115.726 121.502 109.105 124.151 102.589 124.151H102.564C96.058 124.151 89.4094 121.497 82.8042 116.281C82.7266 116.222 82.6381 116.18 82.5438 116.156C82.4495 116.132 82.3514 116.127 82.2552 116.141C82.1589 116.156 82.0666 116.189 81.9836 116.24C81.9005 116.291 81.8285 116.358 81.7717 116.437C81.7258 116.483 81.6908 116.538 81.6694 116.6C81.648 116.661 81.6407 116.727 81.648 116.791C81.6554 116.856 81.6772 116.918 81.7118 116.973C81.7465 117.028 81.7931 117.075 81.8482 117.11H81.8507Z" fill="#0B0B19"/>
<path d="M164.644 92.4553C162.003 88.9806 157.725 86.7857 153.335 86.9081C149.195 87.0202 145.193 89.1718 142.69 92.4553C141.902 93.4903 143.656 94.4948 144.436 93.475C144.268 93.6943 144.497 93.3986 144.607 93.2762C144.78 93.0774 144.956 92.8836 145.139 92.695C145.692 92.1223 146.296 91.6017 146.944 91.1399C148.853 89.7307 151.156 88.9561 153.528 88.9255C155.901 88.8949 158.223 89.6096 160.168 90.9691C160.847 91.4303 161.48 91.9571 162.057 92.542C162.276 92.7612 162.485 92.9881 162.686 93.2227C162.804 93.3578 163.038 93.6586 162.9 93.4776C163.678 94.4973 165.432 93.4954 164.644 92.4579V92.4553Z" fill="#0B0B19"/>
<path d="M163.75 94.2856C163.535 94.2873 163.322 94.2399 163.128 94.1472C162.934 94.0544 162.764 93.9187 162.63 93.7503C162.615 93.735 162.6 93.7146 162.584 93.6968L162.403 93.4775C162.217 93.2608 162.013 93.039 161.794 92.8198C161.235 92.2519 160.622 91.7397 159.964 91.2902C158.083 89.9729 155.836 89.2803 153.54 89.3105C151.245 89.3407 149.017 90.0921 147.171 91.4585C146.543 91.9068 145.956 92.412 145.42 92.9677C145.239 93.1538 145.063 93.3501 144.91 93.5336C144.859 93.5922 144.78 93.6917 144.732 93.7503C144.712 93.7744 144.691 93.7974 144.668 93.8191C144.409 94.0964 144.055 94.2656 143.677 94.2925C143.299 94.3195 142.924 94.2023 142.629 93.9644C142.493 93.8704 142.379 93.7493 142.293 93.6087C142.207 93.4682 142.151 93.3113 142.129 93.148C142.107 92.9847 142.119 92.8187 142.165 92.6603C142.211 92.502 142.289 92.3549 142.394 92.2284C143.683 90.5289 145.332 89.1363 147.224 88.1511C149.115 87.1658 151.202 86.6124 153.333 86.5307C157.728 86.4109 162.192 88.5931 164.958 92.2284C165.064 92.3551 165.142 92.5026 165.187 92.6613C165.233 92.8199 165.245 92.9864 165.223 93.15C165.201 93.3136 165.144 93.4707 165.058 93.6114C164.971 93.7521 164.857 93.8732 164.721 93.967C164.44 94.1758 164.099 94.2877 163.75 94.2856ZM163.204 93.2455C163.329 93.398 163.509 93.4949 163.704 93.5149C163.9 93.535 164.096 93.4766 164.249 93.3526C164.305 93.3202 164.353 93.2753 164.389 93.2216C164.425 93.1678 164.449 93.1065 164.458 93.0423C164.466 92.9782 164.461 92.9128 164.44 92.8513C164.42 92.7898 164.386 92.7337 164.341 92.6872C161.723 89.2431 157.511 87.1757 153.346 87.2904C149.415 87.3975 145.443 89.4649 142.996 92.6872C142.951 92.7337 142.917 92.7897 142.897 92.8511C142.877 92.9124 142.871 92.9775 142.879 93.0415C142.888 93.1055 142.911 93.1667 142.947 93.2206C142.982 93.2744 143.029 93.3196 143.085 93.3526C143.161 93.4143 143.248 93.4606 143.341 93.4886C143.435 93.5166 143.533 93.5259 143.63 93.516C143.727 93.5061 143.821 93.477 143.907 93.4306C143.993 93.3842 144.069 93.3213 144.13 93.2455L144.314 93.0212C144.484 92.83 144.668 92.6261 144.859 92.4272C145.429 91.8384 146.052 91.3033 146.72 90.8288C148.692 89.3743 151.07 88.5748 153.52 88.5428C155.97 88.5107 158.368 89.2479 160.377 90.6504C161.077 91.1271 161.73 91.6709 162.324 92.2743C162.556 92.5062 162.773 92.7408 162.972 92.9728C163.028 93.0365 163.107 93.1359 163.166 93.2073L163.196 93.2455H163.204Z" fill="#0B0B19"/>
<path d="M62.3817 92.4553C59.7407 88.9806 55.4629 86.7857 51.073 86.9081C46.933 87.0202 42.9306 89.1718 40.4272 92.4553C39.6394 93.4903 41.3934 94.4948 42.1734 93.475C42.0052 93.6943 42.2346 93.3986 42.3442 93.2762C42.5176 93.0774 42.6935 92.8836 42.877 92.695C43.4297 92.1223 44.0338 91.6017 44.6819 91.1399C46.5907 89.7307 48.8936 88.9561 51.2661 88.9255C53.6385 88.8949 55.9606 89.6096 57.9052 90.9691C58.5848 91.4303 59.2175 91.9571 59.7942 92.542C60.0134 92.7612 60.2225 92.9881 60.4239 93.2227C60.5411 93.3578 60.7757 93.6586 60.638 93.4776C61.4155 94.4973 63.1695 93.4954 62.3817 92.4579V92.4553Z" fill="#0B0B19"/>
<path d="M61.4868 94.2858C61.2721 94.2873 61.0599 94.2402 60.866 94.1479C60.6722 94.0556 60.5018 93.9206 60.3677 93.753L60.3218 93.6969L60.1408 93.4802C59.9572 93.2635 59.7507 93.0417 59.5315 92.8199C58.9723 92.2521 58.3593 91.7398 57.7011 91.2903C55.8207 89.973 53.5735 89.2804 51.2778 89.3106C48.982 89.3408 46.7539 90.0922 44.9087 91.4586C44.2799 91.9069 43.6937 92.4121 43.1574 92.9678C42.9764 93.1513 42.8005 93.3502 42.6475 93.5337C42.5965 93.5924 42.5175 93.6918 42.4691 93.7504C42.4491 93.7753 42.4278 93.7991 42.4053 93.8218C42.1463 94.0987 41.792 94.2674 41.4137 94.2939C41.0354 94.3204 40.661 94.2027 40.3659 93.9646C40.2306 93.8705 40.1164 93.7494 40.0304 93.6088C39.9445 93.4683 39.8887 93.3114 39.8667 93.1481C39.8446 92.9849 39.8567 92.8188 39.9023 92.6605C39.9479 92.5021 40.0259 92.355 40.1314 92.2285C41.42 90.529 43.0695 89.1364 44.961 88.1512C46.8526 87.1659 48.9392 86.6125 51.0704 86.5308C55.473 86.4033 59.9292 88.5932 62.6952 92.2285C62.801 92.3552 62.8791 92.5027 62.9248 92.6614C62.9704 92.82 62.9824 92.9865 62.9601 93.1501C62.9378 93.3137 62.8816 93.4708 62.7952 93.6115C62.7088 93.7522 62.5939 93.8733 62.4581 93.9671C62.1775 94.1759 61.8366 94.2878 61.4868 94.2858ZM60.9464 93.2456C61.0079 93.3214 61.0837 93.3843 61.1696 93.4307C61.2555 93.4772 61.3496 93.5062 61.4467 93.5161C61.5438 93.5261 61.6419 93.5167 61.7354 93.4887C61.8289 93.4607 61.916 93.4145 61.9916 93.3527C62.0476 93.3203 62.0955 93.2755 62.1317 93.2217C62.1678 93.1679 62.1911 93.1066 62.2 93.0425C62.2088 92.9783 62.2029 92.913 62.1827 92.8514C62.1625 92.7899 62.1285 92.7338 62.0833 92.6873C59.4652 89.2432 55.2512 87.1758 51.0882 87.2905C47.1572 87.3976 43.1854 89.465 40.7381 92.6873C40.6933 92.7338 40.6595 92.7898 40.6394 92.8512C40.6193 92.9125 40.6133 92.9776 40.6219 93.0416C40.6304 93.1056 40.6534 93.1668 40.689 93.2207C40.7245 93.2746 40.7718 93.3197 40.8273 93.3527C40.9031 93.4143 40.9902 93.4603 41.0838 93.4882C41.1774 93.516 41.2756 93.5251 41.3727 93.5149C41.4698 93.5047 41.5639 93.4755 41.6497 93.4288C41.7355 93.3822 41.8112 93.3191 41.8725 93.2431L42.0561 93.0188C42.2269 92.8276 42.4104 92.6236 42.6016 92.4248C43.1715 91.8359 43.7945 91.3009 44.4626 90.8264C46.4342 89.3719 48.8123 88.5723 51.2622 88.5403C53.712 88.5083 56.1103 89.2454 58.1192 90.6479C58.8197 91.1246 59.472 91.6685 60.0669 92.2718C60.2988 92.5064 60.5181 92.7409 60.7144 92.9703L60.9081 93.2074L60.9387 93.2431L60.9464 93.2456Z" fill="#0B0B19"/>
<defs>
<filter id="filter0_d_673_4501" x="0.494141" y="2.57178" width="204.069" height="203.525" filterUnits="userSpaceOnUse" color-interpolation-filters="sRGB">
<feFlood flood-opacity="0" result="BackgroundImageFix"/>
<feColorMatrix in="SourceAlpha" type="matrix" values="0 0 0 0 0 0 0 0 0 0 0 0 0 0 0 0 0 0 127 0" result="hardAlpha"/>
<feOffset dy="3"/>
<feGaussianBlur stdDeviation="15"/>
<feComposite in2="hardAlpha" operator="out"/>
<feColorMatrix type="matrix" values="0 0 0 0 0.416667 0 0 0 0 0.424242 0 0 0 0 1 0 0 0 0.1 0"/>
<feBlend mode="normal" in2="BackgroundImageFix" result="effect1_dropShadow_673_4501"/>
<feBlend mode="normal" in="SourceGraphic" in2="effect1_dropShadow_673_4501" result="shape"/>
</filter>
<radialGradient id="paint0_radial_673_4501" cx="0" cy="0" r="1" gradientUnits="userSpaceOnUse" gradientTransform="translate(102.5 90.5) rotate(89.6835) scale(90.5014)">
<stop stop-color="#B5B6FF"/>
<stop offset="1" stop-color="#6A6CFF"/>
</radialGradient>
<linearGradient id="paint1_linear_673_4501" x1="102.529" y1="29.5718" x2="102.529" y2="173.097" gradientUnits="userSpaceOnUse">
<stop stop-color="white"/>
<stop offset="1" stop-color="#F0F0FF"/>
</linearGradient>
</defs>
</svg>
