<svg width="172" height="28" viewBox="0 0 172 28" fill="none" xmlns="http://www.w3.org/2000/svg">
<path d="M4.25348 9.54529C4.25345 9.11777 4.36599 8.69778 4.57977 8.32754C4.79356 7.9573 5.10106 7.64984 5.47137 7.4361L13.1878 2.98162C13.5581 2.76784 13.9782 2.6553 14.4057 2.65531C14.8333 2.65531 15.2534 2.76786 15.6236 2.98164L20.9095 6.03303C21.1779 5.26886 21.6502 4.59264 22.2754 4.07765L15.9089 0.402655C15.4519 0.138875 14.9335 4.88855e-06 14.4059 3.71571e-10C13.8782 -8.29346e-06 13.3599 0.138851 12.9029 0.402621L3.38022 5.89976C2.92327 6.16358 2.54382 6.54299 2.28 6.9999C2.01618 7.4568 1.87728 7.97509 1.87727 8.50266L1.87729 16.1349C2.62878 15.8257 3.4508 15.7289 4.25358 15.855L4.25348 9.54529Z" fill="#0077B6"/>
<path d="M24.5589 11.9341L24.559 18.4547C24.559 18.8823 24.4463 19.3022 24.2326 19.6724C24.0188 20.0427 23.7112 20.3501 23.3409 20.5639L15.6244 25.0185C15.2541 25.2322 14.8342 25.3447 14.4065 25.3447C13.979 25.3447 13.5589 25.2321 13.1886 25.0185L7.72353 21.8635C7.43142 22.6218 6.93654 23.2852 6.29294 23.7812L12.9036 27.5974C13.3605 27.8612 13.8789 28.0001 14.4065 28C14.9343 28 15.4525 27.8612 15.9096 27.5974L25.4322 22.1002C25.8893 21.8364 26.2686 21.457 26.5325 21C26.7963 20.5432 26.9352 20.0249 26.9352 19.4973L26.9346 11.5792C26.1904 11.9139 25.3683 12.0368 24.5589 11.9341Z" fill="#0077B6"/>
<path d="M1.78528 17.1626C1.17373 17.5155 0.680556 18.0421 0.368244 18.6753C0.0558929 19.3086 -0.0616256 20.0203 0.0305458 20.7203C0.122744 21.4202 0.420456 22.0773 0.886049 22.6082C1.35169 23.1389 1.96426 23.5199 2.64638 23.7026C3.32849 23.8854 4.04952 23.8617 4.71818 23.6348C5.3869 23.4078 5.97329 22.9877 6.40314 22.4276C6.83305 21.8674 7.08715 21.1923 7.13334 20.4877C7.17951 19.7832 7.01573 19.0807 6.66262 18.4693C6.18837 17.6502 5.40854 17.0525 4.49418 16.8075C3.57982 16.5626 2.6056 16.6903 1.78528 17.1626Z" fill="#0077B6"/>
<path d="M23.3257 4.42781C22.7142 4.78086 22.2209 5.30725 21.9087 5.94056C21.5964 6.5738 21.4788 7.28544 21.571 7.98549C21.6632 8.68553 21.9609 9.34251 22.4264 9.87335C22.8921 10.4042 23.5047 10.7851 24.1867 10.9678C24.8689 11.1506 25.5899 11.127 26.2587 10.9001C26.9273 10.6731 27.5136 10.2529 27.9435 9.69277C28.3735 9.1326 28.6275 8.45754 28.6737 7.75297C28.72 7.04843 28.5561 6.34596 28.203 5.7345C27.7289 4.91538 26.9489 4.31774 26.0345 4.07276C25.1203 3.82782 24.146 3.95547 23.3257 4.42781Z" fill="#0077B6"/>
<path d="M13.9807 23.6827C13.8421 23.6456 13.7092 23.5905 13.585 23.5189L8.58238 20.6309C8.65981 19.6232 8.43082 18.6156 7.92542 17.7404C7.42 16.8652 6.66184 16.163 5.75031 15.7263L5.75025 9.95101C5.75069 9.66306 5.82669 9.38026 5.97069 9.1309C6.11469 8.88152 6.32163 8.67431 6.57082 8.52995L13.5849 4.4808C13.8344 4.33676 14.1175 4.26093 14.4056 4.26093C14.6937 4.26094 14.9767 4.33678 15.2262 4.48083L20.0886 7.28775C20.0408 8.29702 20.299 9.29717 20.8294 10.1572C21.3598 11.0173 22.1376 11.6971 23.0609 12.1077L23.0606 18.0489C23.0601 18.3369 22.9841 18.6198 22.84 18.869C22.696 19.1185 22.4891 19.3256 22.2398 19.47L15.2258 23.5191C15.0394 23.6272 14.8332 23.6975 14.6196 23.7255C14.4059 23.7536 14.1887 23.7391 13.9807 23.6827Z" fill="#0077B6"/>
<path d="M40.8991 25.0543C45.3013 25.0543 48.4035 22.691 48.4035 18.8212C48.4035 14.5969 44.9172 13.5039 41.6377 12.4699C38.506 11.5246 37.7083 10.8452 37.7083 9.57497C37.7083 8.39334 38.7128 7.50712 40.4264 7.50712C42.5241 7.50712 43.6468 8.60013 44.3854 10.1658L47.8126 8.18656C46.424 5.29158 43.824 3.54868 40.4264 3.54868C36.881 3.54868 33.6311 5.79377 33.6311 9.69313C33.6311 13.622 36.7037 14.9514 39.865 15.8671C42.9377 16.7533 44.3263 17.3442 44.3263 18.8803C44.3263 20.0324 43.4695 21.0663 41.0173 21.0663C38.4469 21.0663 36.9992 19.8256 36.2606 17.9054L32.7743 19.9437C33.897 23.016 36.6742 25.0543 40.8991 25.0543Z" fill="#0077B6"/>
<path d="M64.5056 24.6407L58.3898 17.1669L64.3283 9.87037H59.7784L54.6967 16.3693V3.96225H50.8855V24.6407H54.6967V17.935L60.0739 24.6407H64.5056Z" fill="#0077B6"/>
<path d="M68.2989 8.09794C69.5988 8.09794 70.6625 7.03447 70.6625 5.76423C70.6625 4.49398 69.5988 3.40098 68.2989 3.40098C67.0285 3.40098 65.9648 4.49398 65.9648 5.76423C65.9648 7.03447 67.0285 8.09794 68.2989 8.09794ZM66.408 24.6407H70.2193V9.87037H66.408V24.6407Z" fill="#0077B6"/>
<path d="M73.7076 24.6407H77.5189V3.07603H73.7076V24.6407Z" fill="#0077B6"/>
<path d="M81.0073 24.6407H84.8186V3.07603H81.0073V24.6407Z" fill="#0077B6"/>
<path d="M100.982 13.9174C102.193 12.9426 102.932 11.5542 102.932 9.78175C102.932 6.3255 100.125 3.96225 96.6385 3.96225H88.4842V24.6407H97.259C100.834 24.6407 103.7 22.1888 103.7 18.6439C103.7 16.4875 102.636 14.8627 100.982 13.9174ZM96.6385 7.77299C97.9385 7.77299 98.8544 8.74783 98.8544 10.0476C98.8544 11.3474 97.909 12.3222 96.6385 12.3222H92.5614V7.77299H96.6385ZM97.259 20.8299H92.5614V15.9557H97.259C98.6476 15.9557 99.6521 16.9897 99.6521 18.3781C99.6521 19.796 98.6476 20.8299 97.259 20.8299Z" fill="#0077B6"/>
<path d="M117.653 9.87037V11.6133C116.59 10.2839 114.994 9.45681 112.837 9.45681C108.908 9.45681 105.658 12.854 105.658 17.2555C105.658 21.6571 108.908 25.0543 112.837 25.0543C114.994 25.0543 116.59 24.2271 117.653 22.8978V24.6407H121.464V9.87037H117.653ZM113.546 21.4208C111.212 21.4208 109.469 19.7369 109.469 17.2555C109.469 14.7741 111.212 13.0903 113.546 13.0903C115.91 13.0903 117.653 14.7741 117.653 17.2555C117.653 19.7369 115.91 21.4208 113.546 21.4208Z" fill="#0077B6"/>
<path d="M128.732 12.4109V9.87037H124.92V24.6407H128.732V17.5805C128.732 14.4787 131.243 13.5925 133.223 13.8288V9.57497C131.361 9.57497 129.5 10.4021 128.732 12.4109Z" fill="#0077B6"/>
<path d="M144.305 13.5334V9.87037H140.967V5.73468L137.155 6.88677V9.87037H134.585V13.5334H137.155V19.6779C137.155 23.6658 138.958 25.2315 144.305 24.6407V21.1844C142.119 21.3026 140.967 21.2731 140.967 19.6779V13.5334H144.305Z" fill="#0077B6"/>
<path d="M149.751 18.8212H160.89C160.978 18.319 161.037 17.8168 161.037 17.2555C161.037 12.9131 157.935 9.45681 153.563 9.45681C148.924 9.45681 145.763 12.854 145.763 17.2555C145.763 21.6571 148.894 25.0543 153.858 25.0543C156.694 25.0543 158.91 23.9022 160.299 21.8934L157.226 20.121C156.576 20.9777 155.394 21.598 153.917 21.598C151.908 21.598 150.283 20.7709 149.751 18.8212ZM149.692 15.8671C150.135 13.9765 151.524 12.8835 153.563 12.8835C155.158 12.8835 156.753 13.7402 157.226 15.8671H149.692Z" fill="#0077B6"/>
<path d="M167.509 12.4109V9.87037H163.698V24.6407H167.509V17.5805C167.509 14.4787 170.021 13.5925 172 13.8288V9.57497C170.139 9.57497 168.277 10.4021 167.509 12.4109Z" fill="#0077B6"/>
</svg>
